<mxfile host="Electron" modified="2023-11-09T17:43:30.537Z" agent="Mozilla/5.0 (Windows NT 10.0; Win64; x64) AppleWebKit/537.36 (KHTML, like Gecko) draw.io/22.0.2 Chrome/114.0.5735.289 Electron/25.8.4 Safari/537.36" etag="Dy1PcCTVcqnncivyDQdx" version="22.0.2" type="device">
  <diagram id="R2lEEEUBdFMjLlhIrx00" name="Page-1">
    <mxGraphModel dx="2126" dy="606" grid="1" gridSize="10" guides="1" tooltips="1" connect="1" arrows="1" fold="1" page="1" pageScale="1" pageWidth="850" pageHeight="1100" math="0" shadow="0" extFonts="Permanent Marker^https://fonts.googleapis.com/css?family=Permanent+Marker">
      <root>
        <mxCell id="0" />
        <mxCell id="1" parent="0" />
        <mxCell id="C-vyLk0tnHw3VtMMgP7b-2" value="Account" style="shape=table;startSize=30;container=1;collapsible=1;childLayout=tableLayout;fixedRows=1;rowLines=0;fontStyle=1;align=center;resizeLast=1;fillColor=#ffcd28;strokeColor=#d79b00;gradientColor=#ffa500;" parent="1" vertex="1">
          <mxGeometry x="-130" y="340" width="280" height="220" as="geometry" />
        </mxCell>
        <mxCell id="C-vyLk0tnHw3VtMMgP7b-3" value="" style="shape=partialRectangle;collapsible=0;dropTarget=0;pointerEvents=0;fillColor=none;points=[[0,0.5],[1,0.5]];portConstraint=eastwest;top=0;left=0;right=0;bottom=1;" parent="C-vyLk0tnHw3VtMMgP7b-2" vertex="1">
          <mxGeometry y="30" width="280" height="40" as="geometry" />
        </mxCell>
        <mxCell id="C-vyLk0tnHw3VtMMgP7b-4" value="PK" style="shape=partialRectangle;overflow=hidden;connectable=0;fillColor=none;top=0;left=0;bottom=0;right=0;fontStyle=1;" parent="C-vyLk0tnHw3VtMMgP7b-3" vertex="1">
          <mxGeometry width="30" height="40" as="geometry">
            <mxRectangle width="30" height="40" as="alternateBounds" />
          </mxGeometry>
        </mxCell>
        <mxCell id="C-vyLk0tnHw3VtMMgP7b-5" value="AccountID int NOT NULL " style="shape=partialRectangle;overflow=hidden;connectable=0;fillColor=none;top=0;left=0;bottom=0;right=0;align=left;spacingLeft=6;fontStyle=5;" parent="C-vyLk0tnHw3VtMMgP7b-3" vertex="1">
          <mxGeometry x="30" width="250" height="40" as="geometry">
            <mxRectangle width="250" height="40" as="alternateBounds" />
          </mxGeometry>
        </mxCell>
        <mxCell id="C-vyLk0tnHw3VtMMgP7b-6" value="" style="shape=partialRectangle;collapsible=0;dropTarget=0;pointerEvents=0;fillColor=none;points=[[0,0.5],[1,0.5]];portConstraint=eastwest;top=0;left=0;right=0;bottom=0;" parent="C-vyLk0tnHw3VtMMgP7b-2" vertex="1">
          <mxGeometry y="70" width="280" height="30" as="geometry" />
        </mxCell>
        <mxCell id="C-vyLk0tnHw3VtMMgP7b-7" value="FK" style="shape=partialRectangle;overflow=hidden;connectable=0;fillColor=none;top=0;left=0;bottom=0;right=0;" parent="C-vyLk0tnHw3VtMMgP7b-6" vertex="1">
          <mxGeometry width="30" height="30" as="geometry">
            <mxRectangle width="30" height="30" as="alternateBounds" />
          </mxGeometry>
        </mxCell>
        <mxCell id="C-vyLk0tnHw3VtMMgP7b-8" value="AccountTypeID int NOT NULL" style="shape=partialRectangle;overflow=hidden;connectable=0;fillColor=none;top=0;left=0;bottom=0;right=0;align=left;spacingLeft=6;" parent="C-vyLk0tnHw3VtMMgP7b-6" vertex="1">
          <mxGeometry x="30" width="250" height="30" as="geometry">
            <mxRectangle width="250" height="30" as="alternateBounds" />
          </mxGeometry>
        </mxCell>
        <mxCell id="3QEIaoWRBVpVeuE5lznQ-340" value="" style="shape=partialRectangle;collapsible=0;dropTarget=0;pointerEvents=0;fillColor=none;points=[[0,0.5],[1,0.5]];portConstraint=eastwest;top=0;left=0;right=0;bottom=0;" parent="C-vyLk0tnHw3VtMMgP7b-2" vertex="1">
          <mxGeometry y="100" width="280" height="30" as="geometry" />
        </mxCell>
        <mxCell id="3QEIaoWRBVpVeuE5lznQ-341" value="" style="shape=partialRectangle;overflow=hidden;connectable=0;fillColor=none;top=0;left=0;bottom=0;right=0;" parent="3QEIaoWRBVpVeuE5lznQ-340" vertex="1">
          <mxGeometry width="30" height="30" as="geometry">
            <mxRectangle width="30" height="30" as="alternateBounds" />
          </mxGeometry>
        </mxCell>
        <mxCell id="3QEIaoWRBVpVeuE5lznQ-342" value="AccountNumber varchar(20) NOT NULL" style="shape=partialRectangle;overflow=hidden;connectable=0;fillColor=none;top=0;left=0;bottom=0;right=0;align=left;spacingLeft=6;" parent="3QEIaoWRBVpVeuE5lznQ-340" vertex="1">
          <mxGeometry x="30" width="250" height="30" as="geometry">
            <mxRectangle width="250" height="30" as="alternateBounds" />
          </mxGeometry>
        </mxCell>
        <mxCell id="3QEIaoWRBVpVeuE5lznQ-42" value="" style="shape=partialRectangle;collapsible=0;dropTarget=0;pointerEvents=0;fillColor=none;points=[[0,0.5],[1,0.5]];portConstraint=eastwest;top=0;left=0;right=0;bottom=0;" parent="C-vyLk0tnHw3VtMMgP7b-2" vertex="1">
          <mxGeometry y="130" width="280" height="30" as="geometry" />
        </mxCell>
        <mxCell id="3QEIaoWRBVpVeuE5lznQ-43" value="" style="shape=partialRectangle;overflow=hidden;connectable=0;fillColor=none;top=0;left=0;bottom=0;right=0;" parent="3QEIaoWRBVpVeuE5lznQ-42" vertex="1">
          <mxGeometry width="30" height="30" as="geometry">
            <mxRectangle width="30" height="30" as="alternateBounds" />
          </mxGeometry>
        </mxCell>
        <mxCell id="3QEIaoWRBVpVeuE5lznQ-44" value="Balance money NOT NULL" style="shape=partialRectangle;overflow=hidden;connectable=0;fillColor=none;top=0;left=0;bottom=0;right=0;align=left;spacingLeft=6;" parent="3QEIaoWRBVpVeuE5lznQ-42" vertex="1">
          <mxGeometry x="30" width="250" height="30" as="geometry">
            <mxRectangle width="250" height="30" as="alternateBounds" />
          </mxGeometry>
        </mxCell>
        <mxCell id="3QEIaoWRBVpVeuE5lznQ-355" value="" style="shape=partialRectangle;collapsible=0;dropTarget=0;pointerEvents=0;fillColor=none;points=[[0,0.5],[1,0.5]];portConstraint=eastwest;top=0;left=0;right=0;bottom=0;" parent="C-vyLk0tnHw3VtMMgP7b-2" vertex="1">
          <mxGeometry y="160" width="280" height="30" as="geometry" />
        </mxCell>
        <mxCell id="3QEIaoWRBVpVeuE5lznQ-356" value="" style="shape=partialRectangle;overflow=hidden;connectable=0;fillColor=none;top=0;left=0;bottom=0;right=0;" parent="3QEIaoWRBVpVeuE5lznQ-355" vertex="1">
          <mxGeometry width="30" height="30" as="geometry">
            <mxRectangle width="30" height="30" as="alternateBounds" />
          </mxGeometry>
        </mxCell>
        <mxCell id="3QEIaoWRBVpVeuE5lznQ-357" value="Available money NOT NULL" style="shape=partialRectangle;overflow=hidden;connectable=0;fillColor=none;top=0;left=0;bottom=0;right=0;align=left;spacingLeft=6;" parent="3QEIaoWRBVpVeuE5lznQ-355" vertex="1">
          <mxGeometry x="30" width="250" height="30" as="geometry">
            <mxRectangle width="250" height="30" as="alternateBounds" />
          </mxGeometry>
        </mxCell>
        <mxCell id="3QEIaoWRBVpVeuE5lznQ-45" value="" style="shape=partialRectangle;collapsible=0;dropTarget=0;pointerEvents=0;fillColor=none;points=[[0,0.5],[1,0.5]];portConstraint=eastwest;top=0;left=0;right=0;bottom=0;" parent="C-vyLk0tnHw3VtMMgP7b-2" vertex="1">
          <mxGeometry y="190" width="280" height="30" as="geometry" />
        </mxCell>
        <mxCell id="3QEIaoWRBVpVeuE5lznQ-46" value="" style="shape=partialRectangle;overflow=hidden;connectable=0;fillColor=none;top=0;left=0;bottom=0;right=0;" parent="3QEIaoWRBVpVeuE5lznQ-45" vertex="1">
          <mxGeometry width="30" height="30" as="geometry">
            <mxRectangle width="30" height="30" as="alternateBounds" />
          </mxGeometry>
        </mxCell>
        <mxCell id="3QEIaoWRBVpVeuE5lznQ-47" value="DateCreated datetime NOT NULL" style="shape=partialRectangle;overflow=hidden;connectable=0;fillColor=none;top=0;left=0;bottom=0;right=0;align=left;spacingLeft=6;" parent="3QEIaoWRBVpVeuE5lznQ-45" vertex="1">
          <mxGeometry x="30" width="250" height="30" as="geometry">
            <mxRectangle width="250" height="30" as="alternateBounds" />
          </mxGeometry>
        </mxCell>
        <mxCell id="C-vyLk0tnHw3VtMMgP7b-13" value="Loan" style="shape=table;startSize=30;container=1;collapsible=1;childLayout=tableLayout;fixedRows=1;rowLines=0;fontStyle=1;align=center;resizeLast=1;fillColor=#ffcd28;gradientColor=#ffa500;strokeColor=#d79b00;" parent="1" vertex="1">
          <mxGeometry x="-540" y="400" width="310" height="300" as="geometry" />
        </mxCell>
        <mxCell id="C-vyLk0tnHw3VtMMgP7b-14" value="" style="shape=partialRectangle;collapsible=0;dropTarget=0;pointerEvents=0;fillColor=none;points=[[0,0.5],[1,0.5]];portConstraint=eastwest;top=0;left=0;right=0;bottom=1;" parent="C-vyLk0tnHw3VtMMgP7b-13" vertex="1">
          <mxGeometry y="30" width="310" height="30" as="geometry" />
        </mxCell>
        <mxCell id="C-vyLk0tnHw3VtMMgP7b-15" value="PK" style="shape=partialRectangle;overflow=hidden;connectable=0;fillColor=none;top=0;left=0;bottom=0;right=0;fontStyle=1;" parent="C-vyLk0tnHw3VtMMgP7b-14" vertex="1">
          <mxGeometry width="30" height="30" as="geometry">
            <mxRectangle width="30" height="30" as="alternateBounds" />
          </mxGeometry>
        </mxCell>
        <mxCell id="C-vyLk0tnHw3VtMMgP7b-16" value="LoanID int NOT NULL " style="shape=partialRectangle;overflow=hidden;connectable=0;fillColor=none;top=0;left=0;bottom=0;right=0;align=left;spacingLeft=6;fontStyle=5;" parent="C-vyLk0tnHw3VtMMgP7b-14" vertex="1">
          <mxGeometry x="30" width="280" height="30" as="geometry">
            <mxRectangle width="280" height="30" as="alternateBounds" />
          </mxGeometry>
        </mxCell>
        <mxCell id="3QEIaoWRBVpVeuE5lznQ-99" value="" style="shape=partialRectangle;collapsible=0;dropTarget=0;pointerEvents=0;fillColor=none;points=[[0,0.5],[1,0.5]];portConstraint=eastwest;top=0;left=0;right=0;bottom=0;" parent="C-vyLk0tnHw3VtMMgP7b-13" vertex="1">
          <mxGeometry y="60" width="310" height="30" as="geometry" />
        </mxCell>
        <mxCell id="3QEIaoWRBVpVeuE5lznQ-100" value="FK" style="shape=partialRectangle;overflow=hidden;connectable=0;fillColor=none;top=0;left=0;bottom=0;right=0;" parent="3QEIaoWRBVpVeuE5lznQ-99" vertex="1">
          <mxGeometry width="30" height="30" as="geometry">
            <mxRectangle width="30" height="30" as="alternateBounds" />
          </mxGeometry>
        </mxCell>
        <mxCell id="3QEIaoWRBVpVeuE5lznQ-101" value="AccountID int NOT NULL" style="shape=partialRectangle;overflow=hidden;connectable=0;fillColor=none;top=0;left=0;bottom=0;right=0;align=left;spacingLeft=6;" parent="3QEIaoWRBVpVeuE5lznQ-99" vertex="1">
          <mxGeometry x="30" width="280" height="30" as="geometry">
            <mxRectangle width="280" height="30" as="alternateBounds" />
          </mxGeometry>
        </mxCell>
        <mxCell id="3QEIaoWRBVpVeuE5lznQ-266" value="" style="shape=partialRectangle;collapsible=0;dropTarget=0;pointerEvents=0;fillColor=none;points=[[0,0.5],[1,0.5]];portConstraint=eastwest;top=0;left=0;right=0;bottom=0;" parent="C-vyLk0tnHw3VtMMgP7b-13" vertex="1">
          <mxGeometry y="90" width="310" height="30" as="geometry" />
        </mxCell>
        <mxCell id="3QEIaoWRBVpVeuE5lznQ-267" value="FK" style="shape=partialRectangle;overflow=hidden;connectable=0;fillColor=none;top=0;left=0;bottom=0;right=0;" parent="3QEIaoWRBVpVeuE5lznQ-266" vertex="1">
          <mxGeometry width="30" height="30" as="geometry">
            <mxRectangle width="30" height="30" as="alternateBounds" />
          </mxGeometry>
        </mxCell>
        <mxCell id="3QEIaoWRBVpVeuE5lznQ-268" value="LoanTypeID int NOT NULL" style="shape=partialRectangle;overflow=hidden;connectable=0;fillColor=none;top=0;left=0;bottom=0;right=0;align=left;spacingLeft=6;" parent="3QEIaoWRBVpVeuE5lznQ-266" vertex="1">
          <mxGeometry x="30" width="280" height="30" as="geometry">
            <mxRectangle width="280" height="30" as="alternateBounds" />
          </mxGeometry>
        </mxCell>
        <mxCell id="3QEIaoWRBVpVeuE5lznQ-349" value="" style="shape=partialRectangle;collapsible=0;dropTarget=0;pointerEvents=0;fillColor=none;points=[[0,0.5],[1,0.5]];portConstraint=eastwest;top=0;left=0;right=0;bottom=0;" parent="C-vyLk0tnHw3VtMMgP7b-13" vertex="1">
          <mxGeometry y="120" width="310" height="30" as="geometry" />
        </mxCell>
        <mxCell id="3QEIaoWRBVpVeuE5lznQ-350" value="" style="shape=partialRectangle;overflow=hidden;connectable=0;fillColor=none;top=0;left=0;bottom=0;right=0;" parent="3QEIaoWRBVpVeuE5lznQ-349" vertex="1">
          <mxGeometry width="30" height="30" as="geometry">
            <mxRectangle width="30" height="30" as="alternateBounds" />
          </mxGeometry>
        </mxCell>
        <mxCell id="3QEIaoWRBVpVeuE5lznQ-351" value="LoanNumber varchar(7) NOT NULL " style="shape=partialRectangle;overflow=hidden;connectable=0;fillColor=none;top=0;left=0;bottom=0;right=0;align=left;spacingLeft=6;" parent="3QEIaoWRBVpVeuE5lznQ-349" vertex="1">
          <mxGeometry x="30" width="280" height="30" as="geometry">
            <mxRectangle width="280" height="30" as="alternateBounds" />
          </mxGeometry>
        </mxCell>
        <mxCell id="3QEIaoWRBVpVeuE5lznQ-124" value="" style="shape=partialRectangle;collapsible=0;dropTarget=0;pointerEvents=0;fillColor=none;points=[[0,0.5],[1,0.5]];portConstraint=eastwest;top=0;left=0;right=0;bottom=0;" parent="C-vyLk0tnHw3VtMMgP7b-13" vertex="1">
          <mxGeometry y="150" width="310" height="30" as="geometry" />
        </mxCell>
        <mxCell id="3QEIaoWRBVpVeuE5lznQ-125" value="" style="shape=partialRectangle;overflow=hidden;connectable=0;fillColor=none;top=0;left=0;bottom=0;right=0;" parent="3QEIaoWRBVpVeuE5lznQ-124" vertex="1">
          <mxGeometry width="30" height="30" as="geometry">
            <mxRectangle width="30" height="30" as="alternateBounds" />
          </mxGeometry>
        </mxCell>
        <mxCell id="3QEIaoWRBVpVeuE5lznQ-126" value="LoanAmount money NOT NULL " style="shape=partialRectangle;overflow=hidden;connectable=0;fillColor=none;top=0;left=0;bottom=0;right=0;align=left;spacingLeft=6;" parent="3QEIaoWRBVpVeuE5lznQ-124" vertex="1">
          <mxGeometry x="30" width="280" height="30" as="geometry">
            <mxRectangle width="280" height="30" as="alternateBounds" />
          </mxGeometry>
        </mxCell>
        <mxCell id="C-vyLk0tnHw3VtMMgP7b-20" value="" style="shape=partialRectangle;collapsible=0;dropTarget=0;pointerEvents=0;fillColor=none;points=[[0,0.5],[1,0.5]];portConstraint=eastwest;top=0;left=0;right=0;bottom=0;" parent="C-vyLk0tnHw3VtMMgP7b-13" vertex="1">
          <mxGeometry y="180" width="310" height="30" as="geometry" />
        </mxCell>
        <mxCell id="C-vyLk0tnHw3VtMMgP7b-21" value="" style="shape=partialRectangle;overflow=hidden;connectable=0;fillColor=none;top=0;left=0;bottom=0;right=0;" parent="C-vyLk0tnHw3VtMMgP7b-20" vertex="1">
          <mxGeometry width="30" height="30" as="geometry">
            <mxRectangle width="30" height="30" as="alternateBounds" />
          </mxGeometry>
        </mxCell>
        <mxCell id="C-vyLk0tnHw3VtMMgP7b-22" value="LoanDate date NOT NULL " style="shape=partialRectangle;overflow=hidden;connectable=0;fillColor=none;top=0;left=0;bottom=0;right=0;align=left;spacingLeft=6;" parent="C-vyLk0tnHw3VtMMgP7b-20" vertex="1">
          <mxGeometry x="30" width="280" height="30" as="geometry">
            <mxRectangle width="280" height="30" as="alternateBounds" />
          </mxGeometry>
        </mxCell>
        <mxCell id="3QEIaoWRBVpVeuE5lznQ-102" value="" style="shape=partialRectangle;collapsible=0;dropTarget=0;pointerEvents=0;fillColor=none;points=[[0,0.5],[1,0.5]];portConstraint=eastwest;top=0;left=0;right=0;bottom=0;" parent="C-vyLk0tnHw3VtMMgP7b-13" vertex="1">
          <mxGeometry y="210" width="310" height="30" as="geometry" />
        </mxCell>
        <mxCell id="3QEIaoWRBVpVeuE5lznQ-103" value="" style="shape=partialRectangle;overflow=hidden;connectable=0;fillColor=none;top=0;left=0;bottom=0;right=0;" parent="3QEIaoWRBVpVeuE5lznQ-102" vertex="1">
          <mxGeometry width="30" height="30" as="geometry">
            <mxRectangle width="30" height="30" as="alternateBounds" />
          </mxGeometry>
        </mxCell>
        <mxCell id="3QEIaoWRBVpVeuE5lznQ-104" value="AmountPaid money  NOT NULL" style="shape=partialRectangle;overflow=hidden;connectable=0;fillColor=none;top=0;left=0;bottom=0;right=0;align=left;spacingLeft=6;" parent="3QEIaoWRBVpVeuE5lznQ-102" vertex="1">
          <mxGeometry x="30" width="280" height="30" as="geometry">
            <mxRectangle width="280" height="30" as="alternateBounds" />
          </mxGeometry>
        </mxCell>
        <mxCell id="3QEIaoWRBVpVeuE5lznQ-121" value="" style="shape=partialRectangle;collapsible=0;dropTarget=0;pointerEvents=0;fillColor=none;points=[[0,0.5],[1,0.5]];portConstraint=eastwest;top=0;left=0;right=0;bottom=0;" parent="C-vyLk0tnHw3VtMMgP7b-13" vertex="1">
          <mxGeometry y="240" width="310" height="30" as="geometry" />
        </mxCell>
        <mxCell id="3QEIaoWRBVpVeuE5lznQ-122" value="" style="shape=partialRectangle;overflow=hidden;connectable=0;fillColor=none;top=0;left=0;bottom=0;right=0;" parent="3QEIaoWRBVpVeuE5lznQ-121" vertex="1">
          <mxGeometry width="30" height="30" as="geometry">
            <mxRectangle width="30" height="30" as="alternateBounds" />
          </mxGeometry>
        </mxCell>
        <mxCell id="3QEIaoWRBVpVeuE5lznQ-123" value="Debt money  NOT NULL" style="shape=partialRectangle;overflow=hidden;connectable=0;fillColor=none;top=0;left=0;bottom=0;right=0;align=left;spacingLeft=6;" parent="3QEIaoWRBVpVeuE5lznQ-121" vertex="1">
          <mxGeometry x="30" width="280" height="30" as="geometry">
            <mxRectangle width="280" height="30" as="alternateBounds" />
          </mxGeometry>
        </mxCell>
        <mxCell id="3QEIaoWRBVpVeuE5lznQ-352" value="" style="shape=partialRectangle;collapsible=0;dropTarget=0;pointerEvents=0;fillColor=none;points=[[0,0.5],[1,0.5]];portConstraint=eastwest;top=0;left=0;right=0;bottom=0;" parent="C-vyLk0tnHw3VtMMgP7b-13" vertex="1">
          <mxGeometry y="270" width="310" height="30" as="geometry" />
        </mxCell>
        <mxCell id="3QEIaoWRBVpVeuE5lznQ-353" value="" style="shape=partialRectangle;overflow=hidden;connectable=0;fillColor=none;top=0;left=0;bottom=0;right=0;" parent="3QEIaoWRBVpVeuE5lznQ-352" vertex="1">
          <mxGeometry width="30" height="30" as="geometry">
            <mxRectangle width="30" height="30" as="alternateBounds" />
          </mxGeometry>
        </mxCell>
        <mxCell id="3QEIaoWRBVpVeuE5lznQ-354" value="FinalPaymentDate date  NOT NULL" style="shape=partialRectangle;overflow=hidden;connectable=0;fillColor=none;top=0;left=0;bottom=0;right=0;align=left;spacingLeft=6;" parent="3QEIaoWRBVpVeuE5lznQ-352" vertex="1">
          <mxGeometry x="30" width="280" height="30" as="geometry">
            <mxRectangle width="280" height="30" as="alternateBounds" />
          </mxGeometry>
        </mxCell>
        <mxCell id="C-vyLk0tnHw3VtMMgP7b-23" value="Customer" style="shape=table;startSize=30;container=1;collapsible=1;childLayout=tableLayout;fixedRows=1;rowLines=0;fontStyle=1;align=center;resizeLast=1;fillColor=#fa6800;strokeColor=#C73500;fontColor=#000000;" parent="1" vertex="1">
          <mxGeometry x="-490" y="5" width="320" height="285" as="geometry">
            <mxRectangle x="-490" y="5" width="100" height="30" as="alternateBounds" />
          </mxGeometry>
        </mxCell>
        <mxCell id="C-vyLk0tnHw3VtMMgP7b-24" value="" style="shape=partialRectangle;collapsible=0;dropTarget=0;pointerEvents=0;fillColor=none;points=[[0,0.5],[1,0.5]];portConstraint=eastwest;top=0;left=0;right=0;bottom=1;" parent="C-vyLk0tnHw3VtMMgP7b-23" vertex="1">
          <mxGeometry y="30" width="320" height="45" as="geometry" />
        </mxCell>
        <mxCell id="C-vyLk0tnHw3VtMMgP7b-25" value="PK" style="shape=partialRectangle;overflow=hidden;connectable=0;fillColor=none;top=0;left=0;bottom=0;right=0;fontStyle=1;" parent="C-vyLk0tnHw3VtMMgP7b-24" vertex="1">
          <mxGeometry width="30" height="45" as="geometry">
            <mxRectangle width="30" height="45" as="alternateBounds" />
          </mxGeometry>
        </mxCell>
        <mxCell id="C-vyLk0tnHw3VtMMgP7b-26" value="CustomerID int NOT NULL " style="shape=partialRectangle;overflow=hidden;connectable=0;fillColor=none;top=0;left=0;bottom=0;right=0;align=left;spacingLeft=6;fontStyle=5;" parent="C-vyLk0tnHw3VtMMgP7b-24" vertex="1">
          <mxGeometry x="30" width="290" height="45" as="geometry">
            <mxRectangle width="290" height="45" as="alternateBounds" />
          </mxGeometry>
        </mxCell>
        <mxCell id="C-vyLk0tnHw3VtMMgP7b-27" value="" style="shape=partialRectangle;collapsible=0;dropTarget=0;pointerEvents=0;fillColor=none;points=[[0,0.5],[1,0.5]];portConstraint=eastwest;top=0;left=0;right=0;bottom=0;" parent="C-vyLk0tnHw3VtMMgP7b-23" vertex="1">
          <mxGeometry y="75" width="320" height="30" as="geometry" />
        </mxCell>
        <mxCell id="C-vyLk0tnHw3VtMMgP7b-28" value="" style="shape=partialRectangle;overflow=hidden;connectable=0;fillColor=none;top=0;left=0;bottom=0;right=0;" parent="C-vyLk0tnHw3VtMMgP7b-27" vertex="1">
          <mxGeometry width="30" height="30" as="geometry">
            <mxRectangle width="30" height="30" as="alternateBounds" />
          </mxGeometry>
        </mxCell>
        <mxCell id="C-vyLk0tnHw3VtMMgP7b-29" value="FirstName nvarchar(50) NOT NULL" style="shape=partialRectangle;overflow=hidden;connectable=0;fillColor=none;top=0;left=0;bottom=0;right=0;align=left;spacingLeft=6;" parent="C-vyLk0tnHw3VtMMgP7b-27" vertex="1">
          <mxGeometry x="30" width="290" height="30" as="geometry">
            <mxRectangle width="290" height="30" as="alternateBounds" />
          </mxGeometry>
        </mxCell>
        <mxCell id="3QEIaoWRBVpVeuE5lznQ-27" value="" style="shape=partialRectangle;collapsible=0;dropTarget=0;pointerEvents=0;fillColor=none;points=[[0,0.5],[1,0.5]];portConstraint=eastwest;top=0;left=0;right=0;bottom=0;" parent="C-vyLk0tnHw3VtMMgP7b-23" vertex="1">
          <mxGeometry y="105" width="320" height="30" as="geometry" />
        </mxCell>
        <mxCell id="3QEIaoWRBVpVeuE5lznQ-28" value="" style="shape=partialRectangle;overflow=hidden;connectable=0;fillColor=none;top=0;left=0;bottom=0;right=0;" parent="3QEIaoWRBVpVeuE5lznQ-27" vertex="1">
          <mxGeometry width="30" height="30" as="geometry">
            <mxRectangle width="30" height="30" as="alternateBounds" />
          </mxGeometry>
        </mxCell>
        <mxCell id="3QEIaoWRBVpVeuE5lznQ-29" value="LastName nvarchar(50) NOT NULL" style="shape=partialRectangle;overflow=hidden;connectable=0;fillColor=none;top=0;left=0;bottom=0;right=0;align=left;spacingLeft=6;" parent="3QEIaoWRBVpVeuE5lznQ-27" vertex="1">
          <mxGeometry x="30" width="290" height="30" as="geometry">
            <mxRectangle width="290" height="30" as="alternateBounds" />
          </mxGeometry>
        </mxCell>
        <mxCell id="3QEIaoWRBVpVeuE5lznQ-30" value="" style="shape=partialRectangle;collapsible=0;dropTarget=0;pointerEvents=0;fillColor=none;points=[[0,0.5],[1,0.5]];portConstraint=eastwest;top=0;left=0;right=0;bottom=0;" parent="C-vyLk0tnHw3VtMMgP7b-23" vertex="1">
          <mxGeometry y="135" width="320" height="30" as="geometry" />
        </mxCell>
        <mxCell id="3QEIaoWRBVpVeuE5lznQ-31" value="" style="shape=partialRectangle;overflow=hidden;connectable=0;fillColor=none;top=0;left=0;bottom=0;right=0;" parent="3QEIaoWRBVpVeuE5lznQ-30" vertex="1">
          <mxGeometry width="30" height="30" as="geometry">
            <mxRectangle width="30" height="30" as="alternateBounds" />
          </mxGeometry>
        </mxCell>
        <mxCell id="3QEIaoWRBVpVeuE5lznQ-32" value="Gender nvarchar(10) NOT NULL" style="shape=partialRectangle;overflow=hidden;connectable=0;fillColor=none;top=0;left=0;bottom=0;right=0;align=left;spacingLeft=6;" parent="3QEIaoWRBVpVeuE5lznQ-30" vertex="1">
          <mxGeometry x="30" width="290" height="30" as="geometry">
            <mxRectangle width="290" height="30" as="alternateBounds" />
          </mxGeometry>
        </mxCell>
        <mxCell id="3QEIaoWRBVpVeuE5lznQ-33" value="" style="shape=partialRectangle;collapsible=0;dropTarget=0;pointerEvents=0;fillColor=none;points=[[0,0.5],[1,0.5]];portConstraint=eastwest;top=0;left=0;right=0;bottom=0;" parent="C-vyLk0tnHw3VtMMgP7b-23" vertex="1">
          <mxGeometry y="165" width="320" height="30" as="geometry" />
        </mxCell>
        <mxCell id="3QEIaoWRBVpVeuE5lznQ-34" value="" style="shape=partialRectangle;overflow=hidden;connectable=0;fillColor=none;top=0;left=0;bottom=0;right=0;" parent="3QEIaoWRBVpVeuE5lznQ-33" vertex="1">
          <mxGeometry width="30" height="30" as="geometry">
            <mxRectangle width="30" height="30" as="alternateBounds" />
          </mxGeometry>
        </mxCell>
        <mxCell id="3QEIaoWRBVpVeuE5lznQ-35" value="PersonalNumber varchar(12) NOT NULL" style="shape=partialRectangle;overflow=hidden;connectable=0;fillColor=none;top=0;left=0;bottom=0;right=0;align=left;spacingLeft=6;" parent="3QEIaoWRBVpVeuE5lznQ-33" vertex="1">
          <mxGeometry x="30" width="290" height="30" as="geometry">
            <mxRectangle width="290" height="30" as="alternateBounds" />
          </mxGeometry>
        </mxCell>
        <mxCell id="3QEIaoWRBVpVeuE5lznQ-149" value="" style="shape=partialRectangle;collapsible=0;dropTarget=0;pointerEvents=0;fillColor=none;points=[[0,0.5],[1,0.5]];portConstraint=eastwest;top=0;left=0;right=0;bottom=0;" parent="C-vyLk0tnHw3VtMMgP7b-23" vertex="1">
          <mxGeometry y="195" width="320" height="30" as="geometry" />
        </mxCell>
        <mxCell id="3QEIaoWRBVpVeuE5lznQ-150" value="" style="shape=partialRectangle;overflow=hidden;connectable=0;fillColor=none;top=0;left=0;bottom=0;right=0;" parent="3QEIaoWRBVpVeuE5lznQ-149" vertex="1">
          <mxGeometry width="30" height="30" as="geometry">
            <mxRectangle width="30" height="30" as="alternateBounds" />
          </mxGeometry>
        </mxCell>
        <mxCell id="3QEIaoWRBVpVeuE5lznQ-151" value="DateOfBirth date NOT NULL" style="shape=partialRectangle;overflow=hidden;connectable=0;fillColor=none;top=0;left=0;bottom=0;right=0;align=left;spacingLeft=6;" parent="3QEIaoWRBVpVeuE5lznQ-149" vertex="1">
          <mxGeometry x="30" width="290" height="30" as="geometry">
            <mxRectangle width="290" height="30" as="alternateBounds" />
          </mxGeometry>
        </mxCell>
        <mxCell id="3QEIaoWRBVpVeuE5lznQ-329" value="" style="shape=partialRectangle;collapsible=0;dropTarget=0;pointerEvents=0;fillColor=none;points=[[0,0.5],[1,0.5]];portConstraint=eastwest;top=0;left=0;right=0;bottom=0;" parent="C-vyLk0tnHw3VtMMgP7b-23" vertex="1">
          <mxGeometry y="225" width="320" height="30" as="geometry" />
        </mxCell>
        <mxCell id="3QEIaoWRBVpVeuE5lznQ-330" value="" style="shape=partialRectangle;overflow=hidden;connectable=0;fillColor=none;top=0;left=0;bottom=0;right=0;" parent="3QEIaoWRBVpVeuE5lznQ-329" vertex="1">
          <mxGeometry width="30" height="30" as="geometry">
            <mxRectangle width="30" height="30" as="alternateBounds" />
          </mxGeometry>
        </mxCell>
        <mxCell id="3QEIaoWRBVpVeuE5lznQ-331" value="Phonenumber varchar(20) NOT NULL" style="shape=partialRectangle;overflow=hidden;connectable=0;fillColor=none;top=0;left=0;bottom=0;right=0;align=left;spacingLeft=6;" parent="3QEIaoWRBVpVeuE5lznQ-329" vertex="1">
          <mxGeometry x="30" width="290" height="30" as="geometry">
            <mxRectangle width="290" height="30" as="alternateBounds" />
          </mxGeometry>
        </mxCell>
        <mxCell id="3QEIaoWRBVpVeuE5lznQ-332" value="" style="shape=partialRectangle;collapsible=0;dropTarget=0;pointerEvents=0;fillColor=none;points=[[0,0.5],[1,0.5]];portConstraint=eastwest;top=0;left=0;right=0;bottom=0;" parent="C-vyLk0tnHw3VtMMgP7b-23" vertex="1">
          <mxGeometry y="255" width="320" height="30" as="geometry" />
        </mxCell>
        <mxCell id="3QEIaoWRBVpVeuE5lznQ-333" value="" style="shape=partialRectangle;overflow=hidden;connectable=0;fillColor=none;top=0;left=0;bottom=0;right=0;" parent="3QEIaoWRBVpVeuE5lznQ-332" vertex="1">
          <mxGeometry width="30" height="30" as="geometry">
            <mxRectangle width="30" height="30" as="alternateBounds" />
          </mxGeometry>
        </mxCell>
        <mxCell id="3QEIaoWRBVpVeuE5lznQ-334" value="Email varchar(100) NOT NULL" style="shape=partialRectangle;overflow=hidden;connectable=0;fillColor=none;top=0;left=0;bottom=0;right=0;align=left;spacingLeft=6;" parent="3QEIaoWRBVpVeuE5lznQ-332" vertex="1">
          <mxGeometry x="30" width="290" height="30" as="geometry">
            <mxRectangle width="290" height="30" as="alternateBounds" />
          </mxGeometry>
        </mxCell>
        <mxCell id="3QEIaoWRBVpVeuE5lznQ-1" value="Transaction" style="shape=table;startSize=30;container=1;collapsible=1;childLayout=tableLayout;fixedRows=1;rowLines=0;fontStyle=1;align=center;resizeLast=1;html=1;fillColor=#ffcd28;gradientColor=#ffa500;strokeColor=#d79b00;" parent="1" vertex="1">
          <mxGeometry x="210" y="480" width="270" height="180" as="geometry" />
        </mxCell>
        <mxCell id="3QEIaoWRBVpVeuE5lznQ-2" value="" style="shape=tableRow;horizontal=0;startSize=0;swimlaneHead=0;swimlaneBody=0;fillColor=none;collapsible=0;dropTarget=0;points=[[0,0.5],[1,0.5]];portConstraint=eastwest;top=0;left=0;right=0;bottom=1;" parent="3QEIaoWRBVpVeuE5lznQ-1" vertex="1">
          <mxGeometry y="30" width="270" height="30" as="geometry" />
        </mxCell>
        <mxCell id="3QEIaoWRBVpVeuE5lznQ-3" value="PK" style="shape=partialRectangle;connectable=0;fillColor=none;top=0;left=0;bottom=0;right=0;fontStyle=1;overflow=hidden;whiteSpace=wrap;html=1;" parent="3QEIaoWRBVpVeuE5lznQ-2" vertex="1">
          <mxGeometry width="30" height="30" as="geometry">
            <mxRectangle width="30" height="30" as="alternateBounds" />
          </mxGeometry>
        </mxCell>
        <mxCell id="3QEIaoWRBVpVeuE5lznQ-4" value="TransactionID int NOT NULL" style="shape=partialRectangle;connectable=0;fillColor=none;top=0;left=0;bottom=0;right=0;align=left;spacingLeft=6;fontStyle=5;overflow=hidden;whiteSpace=wrap;html=1;" parent="3QEIaoWRBVpVeuE5lznQ-2" vertex="1">
          <mxGeometry x="30" width="240" height="30" as="geometry">
            <mxRectangle width="240" height="30" as="alternateBounds" />
          </mxGeometry>
        </mxCell>
        <mxCell id="3QEIaoWRBVpVeuE5lznQ-5" value="" style="shape=tableRow;horizontal=0;startSize=0;swimlaneHead=0;swimlaneBody=0;fillColor=none;collapsible=0;dropTarget=0;points=[[0,0.5],[1,0.5]];portConstraint=eastwest;top=0;left=0;right=0;bottom=0;" parent="3QEIaoWRBVpVeuE5lznQ-1" vertex="1">
          <mxGeometry y="60" width="270" height="30" as="geometry" />
        </mxCell>
        <mxCell id="3QEIaoWRBVpVeuE5lznQ-6" value="FK" style="shape=partialRectangle;connectable=0;fillColor=none;top=0;left=0;bottom=0;right=0;editable=1;overflow=hidden;whiteSpace=wrap;html=1;" parent="3QEIaoWRBVpVeuE5lznQ-5" vertex="1">
          <mxGeometry width="30" height="30" as="geometry">
            <mxRectangle width="30" height="30" as="alternateBounds" />
          </mxGeometry>
        </mxCell>
        <mxCell id="3QEIaoWRBVpVeuE5lznQ-7" value="TransactionTypeID int NOT NULL" style="shape=partialRectangle;connectable=0;fillColor=none;top=0;left=0;bottom=0;right=0;align=left;spacingLeft=6;overflow=hidden;whiteSpace=wrap;html=1;" parent="3QEIaoWRBVpVeuE5lznQ-5" vertex="1">
          <mxGeometry x="30" width="240" height="30" as="geometry">
            <mxRectangle width="240" height="30" as="alternateBounds" />
          </mxGeometry>
        </mxCell>
        <mxCell id="3QEIaoWRBVpVeuE5lznQ-318" value="" style="shape=tableRow;horizontal=0;startSize=0;swimlaneHead=0;swimlaneBody=0;fillColor=none;collapsible=0;dropTarget=0;points=[[0,0.5],[1,0.5]];portConstraint=eastwest;top=0;left=0;right=0;bottom=0;" parent="3QEIaoWRBVpVeuE5lznQ-1" vertex="1">
          <mxGeometry y="90" width="270" height="30" as="geometry" />
        </mxCell>
        <mxCell id="3QEIaoWRBVpVeuE5lznQ-319" value="FK" style="shape=partialRectangle;connectable=0;fillColor=none;top=0;left=0;bottom=0;right=0;editable=1;overflow=hidden;whiteSpace=wrap;html=1;" parent="3QEIaoWRBVpVeuE5lznQ-318" vertex="1">
          <mxGeometry width="30" height="30" as="geometry">
            <mxRectangle width="30" height="30" as="alternateBounds" />
          </mxGeometry>
        </mxCell>
        <mxCell id="3QEIaoWRBVpVeuE5lznQ-320" value="AccountID int NOT NULL" style="shape=partialRectangle;connectable=0;fillColor=none;top=0;left=0;bottom=0;right=0;align=left;spacingLeft=6;overflow=hidden;whiteSpace=wrap;html=1;" parent="3QEIaoWRBVpVeuE5lznQ-318" vertex="1">
          <mxGeometry x="30" width="240" height="30" as="geometry">
            <mxRectangle width="240" height="30" as="alternateBounds" />
          </mxGeometry>
        </mxCell>
        <mxCell id="3QEIaoWRBVpVeuE5lznQ-8" value="" style="shape=tableRow;horizontal=0;startSize=0;swimlaneHead=0;swimlaneBody=0;fillColor=none;collapsible=0;dropTarget=0;points=[[0,0.5],[1,0.5]];portConstraint=eastwest;top=0;left=0;right=0;bottom=0;" parent="3QEIaoWRBVpVeuE5lznQ-1" vertex="1">
          <mxGeometry y="120" width="270" height="30" as="geometry" />
        </mxCell>
        <mxCell id="3QEIaoWRBVpVeuE5lznQ-9" value="" style="shape=partialRectangle;connectable=0;fillColor=none;top=0;left=0;bottom=0;right=0;editable=1;overflow=hidden;whiteSpace=wrap;html=1;" parent="3QEIaoWRBVpVeuE5lznQ-8" vertex="1">
          <mxGeometry width="30" height="30" as="geometry">
            <mxRectangle width="30" height="30" as="alternateBounds" />
          </mxGeometry>
        </mxCell>
        <mxCell id="3QEIaoWRBVpVeuE5lznQ-10" value="TransactionDate datetime NOT NULL" style="shape=partialRectangle;connectable=0;fillColor=none;top=0;left=0;bottom=0;right=0;align=left;spacingLeft=6;overflow=hidden;whiteSpace=wrap;html=1;" parent="3QEIaoWRBVpVeuE5lznQ-8" vertex="1">
          <mxGeometry x="30" width="240" height="30" as="geometry">
            <mxRectangle width="240" height="30" as="alternateBounds" />
          </mxGeometry>
        </mxCell>
        <mxCell id="3QEIaoWRBVpVeuE5lznQ-11" value="" style="shape=tableRow;horizontal=0;startSize=0;swimlaneHead=0;swimlaneBody=0;fillColor=none;collapsible=0;dropTarget=0;points=[[0,0.5],[1,0.5]];portConstraint=eastwest;top=0;left=0;right=0;bottom=0;" parent="3QEIaoWRBVpVeuE5lznQ-1" vertex="1">
          <mxGeometry y="150" width="270" height="30" as="geometry" />
        </mxCell>
        <mxCell id="3QEIaoWRBVpVeuE5lznQ-12" value="" style="shape=partialRectangle;connectable=0;fillColor=none;top=0;left=0;bottom=0;right=0;editable=1;overflow=hidden;whiteSpace=wrap;html=1;" parent="3QEIaoWRBVpVeuE5lznQ-11" vertex="1">
          <mxGeometry width="30" height="30" as="geometry">
            <mxRectangle width="30" height="30" as="alternateBounds" />
          </mxGeometry>
        </mxCell>
        <mxCell id="3QEIaoWRBVpVeuE5lznQ-13" value="TransactionAmount money NOT NULL" style="shape=partialRectangle;connectable=0;fillColor=none;top=0;left=0;bottom=0;right=0;align=left;spacingLeft=6;overflow=hidden;whiteSpace=wrap;html=1;" parent="3QEIaoWRBVpVeuE5lznQ-11" vertex="1">
          <mxGeometry x="30" width="240" height="30" as="geometry">
            <mxRectangle width="240" height="30" as="alternateBounds" />
          </mxGeometry>
        </mxCell>
        <mxCell id="3QEIaoWRBVpVeuE5lznQ-14" value="Card" style="shape=table;startSize=30;container=1;collapsible=1;childLayout=tableLayout;fixedRows=1;rowLines=0;fontStyle=1;align=center;resizeLast=1;html=1;fillColor=#ffcd28;gradientColor=#ffa500;strokeColor=#d79b00;" parent="1" vertex="1">
          <mxGeometry x="220" y="120" width="260" height="240" as="geometry" />
        </mxCell>
        <mxCell id="3QEIaoWRBVpVeuE5lznQ-15" value="" style="shape=tableRow;horizontal=0;startSize=0;swimlaneHead=0;swimlaneBody=0;fillColor=none;collapsible=0;dropTarget=0;points=[[0,0.5],[1,0.5]];portConstraint=eastwest;top=0;left=0;right=0;bottom=1;" parent="3QEIaoWRBVpVeuE5lznQ-14" vertex="1">
          <mxGeometry y="30" width="260" height="30" as="geometry" />
        </mxCell>
        <mxCell id="3QEIaoWRBVpVeuE5lznQ-16" value="PK" style="shape=partialRectangle;connectable=0;fillColor=none;top=0;left=0;bottom=0;right=0;fontStyle=1;overflow=hidden;whiteSpace=wrap;html=1;" parent="3QEIaoWRBVpVeuE5lznQ-15" vertex="1">
          <mxGeometry width="30" height="30" as="geometry">
            <mxRectangle width="30" height="30" as="alternateBounds" />
          </mxGeometry>
        </mxCell>
        <mxCell id="3QEIaoWRBVpVeuE5lznQ-17" value="CardID int NOT NULL" style="shape=partialRectangle;connectable=0;fillColor=none;top=0;left=0;bottom=0;right=0;align=left;spacingLeft=6;fontStyle=5;overflow=hidden;whiteSpace=wrap;html=1;" parent="3QEIaoWRBVpVeuE5lznQ-15" vertex="1">
          <mxGeometry x="30" width="230" height="30" as="geometry">
            <mxRectangle width="230" height="30" as="alternateBounds" />
          </mxGeometry>
        </mxCell>
        <mxCell id="3QEIaoWRBVpVeuE5lznQ-18" value="" style="shape=tableRow;horizontal=0;startSize=0;swimlaneHead=0;swimlaneBody=0;fillColor=none;collapsible=0;dropTarget=0;points=[[0,0.5],[1,0.5]];portConstraint=eastwest;top=0;left=0;right=0;bottom=0;" parent="3QEIaoWRBVpVeuE5lznQ-14" vertex="1">
          <mxGeometry y="60" width="260" height="30" as="geometry" />
        </mxCell>
        <mxCell id="3QEIaoWRBVpVeuE5lznQ-19" value="FK" style="shape=partialRectangle;connectable=0;fillColor=none;top=0;left=0;bottom=0;right=0;editable=1;overflow=hidden;whiteSpace=wrap;html=1;" parent="3QEIaoWRBVpVeuE5lznQ-18" vertex="1">
          <mxGeometry width="30" height="30" as="geometry">
            <mxRectangle width="30" height="30" as="alternateBounds" />
          </mxGeometry>
        </mxCell>
        <mxCell id="3QEIaoWRBVpVeuE5lznQ-20" value="CardSecurityID int NOT NULL" style="shape=partialRectangle;connectable=0;fillColor=none;top=0;left=0;bottom=0;right=0;align=left;spacingLeft=6;overflow=hidden;whiteSpace=wrap;html=1;" parent="3QEIaoWRBVpVeuE5lznQ-18" vertex="1">
          <mxGeometry x="30" width="230" height="30" as="geometry">
            <mxRectangle width="230" height="30" as="alternateBounds" />
          </mxGeometry>
        </mxCell>
        <mxCell id="3QEIaoWRBVpVeuE5lznQ-326" value="" style="shape=tableRow;horizontal=0;startSize=0;swimlaneHead=0;swimlaneBody=0;fillColor=none;collapsible=0;dropTarget=0;points=[[0,0.5],[1,0.5]];portConstraint=eastwest;top=0;left=0;right=0;bottom=0;" parent="3QEIaoWRBVpVeuE5lznQ-14" vertex="1">
          <mxGeometry y="90" width="260" height="30" as="geometry" />
        </mxCell>
        <mxCell id="3QEIaoWRBVpVeuE5lznQ-327" value="" style="shape=partialRectangle;connectable=0;fillColor=none;top=0;left=0;bottom=0;right=0;editable=1;overflow=hidden;whiteSpace=wrap;html=1;" parent="3QEIaoWRBVpVeuE5lznQ-326" vertex="1">
          <mxGeometry width="30" height="30" as="geometry">
            <mxRectangle width="30" height="30" as="alternateBounds" />
          </mxGeometry>
        </mxCell>
        <mxCell id="3QEIaoWRBVpVeuE5lznQ-328" value="CardType nvarchar(20) NOT NULL" style="shape=partialRectangle;connectable=0;fillColor=none;top=0;left=0;bottom=0;right=0;align=left;spacingLeft=6;overflow=hidden;whiteSpace=wrap;html=1;" parent="3QEIaoWRBVpVeuE5lznQ-326" vertex="1">
          <mxGeometry x="30" width="230" height="30" as="geometry">
            <mxRectangle width="230" height="30" as="alternateBounds" />
          </mxGeometry>
        </mxCell>
        <mxCell id="8nZnxmdu5XZFXlYCYkYo-1" value="" style="shape=tableRow;horizontal=0;startSize=0;swimlaneHead=0;swimlaneBody=0;fillColor=none;collapsible=0;dropTarget=0;points=[[0,0.5],[1,0.5]];portConstraint=eastwest;top=0;left=0;right=0;bottom=0;" parent="3QEIaoWRBVpVeuE5lznQ-14" vertex="1">
          <mxGeometry y="120" width="260" height="30" as="geometry" />
        </mxCell>
        <mxCell id="8nZnxmdu5XZFXlYCYkYo-2" value="" style="shape=partialRectangle;connectable=0;fillColor=none;top=0;left=0;bottom=0;right=0;editable=1;overflow=hidden;whiteSpace=wrap;html=1;" parent="8nZnxmdu5XZFXlYCYkYo-1" vertex="1">
          <mxGeometry width="30" height="30" as="geometry">
            <mxRectangle width="30" height="30" as="alternateBounds" />
          </mxGeometry>
        </mxCell>
        <mxCell id="8nZnxmdu5XZFXlYCYkYo-3" value="CardDescription nvarchar(12) NOT NULL" style="shape=partialRectangle;connectable=0;fillColor=none;top=0;left=0;bottom=0;right=0;align=left;spacingLeft=6;overflow=hidden;whiteSpace=wrap;html=1;" parent="8nZnxmdu5XZFXlYCYkYo-1" vertex="1">
          <mxGeometry x="30" width="230" height="30" as="geometry">
            <mxRectangle width="230" height="30" as="alternateBounds" />
          </mxGeometry>
        </mxCell>
        <mxCell id="3QEIaoWRBVpVeuE5lznQ-21" value="" style="shape=tableRow;horizontal=0;startSize=0;swimlaneHead=0;swimlaneBody=0;fillColor=none;collapsible=0;dropTarget=0;points=[[0,0.5],[1,0.5]];portConstraint=eastwest;top=0;left=0;right=0;bottom=0;" parent="3QEIaoWRBVpVeuE5lznQ-14" vertex="1">
          <mxGeometry y="150" width="260" height="30" as="geometry" />
        </mxCell>
        <mxCell id="3QEIaoWRBVpVeuE5lznQ-22" value="" style="shape=partialRectangle;connectable=0;fillColor=none;top=0;left=0;bottom=0;right=0;editable=1;overflow=hidden;whiteSpace=wrap;html=1;" parent="3QEIaoWRBVpVeuE5lznQ-21" vertex="1">
          <mxGeometry width="30" height="30" as="geometry">
            <mxRectangle width="30" height="30" as="alternateBounds" />
          </mxGeometry>
        </mxCell>
        <mxCell id="3QEIaoWRBVpVeuE5lznQ-23" value="IssuedDate datetime NOT NULL" style="shape=partialRectangle;connectable=0;fillColor=none;top=0;left=0;bottom=0;right=0;align=left;spacingLeft=6;overflow=hidden;whiteSpace=wrap;html=1;" parent="3QEIaoWRBVpVeuE5lznQ-21" vertex="1">
          <mxGeometry x="30" width="230" height="30" as="geometry">
            <mxRectangle width="230" height="30" as="alternateBounds" />
          </mxGeometry>
        </mxCell>
        <mxCell id="3QEIaoWRBVpVeuE5lznQ-24" value="" style="shape=tableRow;horizontal=0;startSize=0;swimlaneHead=0;swimlaneBody=0;fillColor=none;collapsible=0;dropTarget=0;points=[[0,0.5],[1,0.5]];portConstraint=eastwest;top=0;left=0;right=0;bottom=0;" parent="3QEIaoWRBVpVeuE5lznQ-14" vertex="1">
          <mxGeometry y="180" width="260" height="30" as="geometry" />
        </mxCell>
        <mxCell id="3QEIaoWRBVpVeuE5lznQ-25" value="" style="shape=partialRectangle;connectable=0;fillColor=none;top=0;left=0;bottom=0;right=0;editable=1;overflow=hidden;whiteSpace=wrap;html=1;" parent="3QEIaoWRBVpVeuE5lznQ-24" vertex="1">
          <mxGeometry width="30" height="30" as="geometry">
            <mxRectangle width="30" height="30" as="alternateBounds" />
          </mxGeometry>
        </mxCell>
        <mxCell id="3QEIaoWRBVpVeuE5lznQ-26" value="ExpiryMonth tinyint NOT NULL" style="shape=partialRectangle;connectable=0;fillColor=none;top=0;left=0;bottom=0;right=0;align=left;spacingLeft=6;overflow=hidden;whiteSpace=wrap;html=1;" parent="3QEIaoWRBVpVeuE5lznQ-24" vertex="1">
          <mxGeometry x="30" width="230" height="30" as="geometry">
            <mxRectangle width="230" height="30" as="alternateBounds" />
          </mxGeometry>
        </mxCell>
        <mxCell id="3QEIaoWRBVpVeuE5lznQ-127" value="" style="shape=tableRow;horizontal=0;startSize=0;swimlaneHead=0;swimlaneBody=0;fillColor=none;collapsible=0;dropTarget=0;points=[[0,0.5],[1,0.5]];portConstraint=eastwest;top=0;left=0;right=0;bottom=0;" parent="3QEIaoWRBVpVeuE5lznQ-14" vertex="1">
          <mxGeometry y="210" width="260" height="30" as="geometry" />
        </mxCell>
        <mxCell id="3QEIaoWRBVpVeuE5lznQ-128" value="" style="shape=partialRectangle;connectable=0;fillColor=none;top=0;left=0;bottom=0;right=0;editable=1;overflow=hidden;whiteSpace=wrap;html=1;" parent="3QEIaoWRBVpVeuE5lznQ-127" vertex="1">
          <mxGeometry width="30" height="30" as="geometry">
            <mxRectangle width="30" height="30" as="alternateBounds" />
          </mxGeometry>
        </mxCell>
        <mxCell id="3QEIaoWRBVpVeuE5lznQ-129" value="ExpiryYear smallint NOT NULL" style="shape=partialRectangle;connectable=0;fillColor=none;top=0;left=0;bottom=0;right=0;align=left;spacingLeft=6;overflow=hidden;whiteSpace=wrap;html=1;" parent="3QEIaoWRBVpVeuE5lznQ-127" vertex="1">
          <mxGeometry x="30" width="230" height="30" as="geometry">
            <mxRectangle width="230" height="30" as="alternateBounds" />
          </mxGeometry>
        </mxCell>
        <mxCell id="3QEIaoWRBVpVeuE5lznQ-48" value="CustomerAddress" style="shape=table;startSize=30;container=1;collapsible=1;childLayout=tableLayout;fixedRows=1;rowLines=0;fontStyle=1;align=center;resizeLast=1;html=1;fillColor=#ffcd28;strokeColor=#d79b00;gradientColor=#ffa500;" parent="1" vertex="1">
          <mxGeometry x="-840" y="120" width="270" height="180" as="geometry" />
        </mxCell>
        <mxCell id="3QEIaoWRBVpVeuE5lznQ-49" value="" style="shape=tableRow;horizontal=0;startSize=0;swimlaneHead=0;swimlaneBody=0;fillColor=none;collapsible=0;dropTarget=0;points=[[0,0.5],[1,0.5]];portConstraint=eastwest;top=0;left=0;right=0;bottom=1;" parent="3QEIaoWRBVpVeuE5lznQ-48" vertex="1">
          <mxGeometry y="30" width="270" height="30" as="geometry" />
        </mxCell>
        <mxCell id="3QEIaoWRBVpVeuE5lznQ-50" value="PK" style="shape=partialRectangle;connectable=0;fillColor=none;top=0;left=0;bottom=0;right=0;fontStyle=1;overflow=hidden;whiteSpace=wrap;html=1;" parent="3QEIaoWRBVpVeuE5lznQ-49" vertex="1">
          <mxGeometry width="30" height="30" as="geometry">
            <mxRectangle width="30" height="30" as="alternateBounds" />
          </mxGeometry>
        </mxCell>
        <mxCell id="3QEIaoWRBVpVeuE5lznQ-51" value="CustomerAddressID int NOT NULL" style="shape=partialRectangle;connectable=0;fillColor=none;top=0;left=0;bottom=0;right=0;align=left;spacingLeft=6;fontStyle=5;overflow=hidden;whiteSpace=wrap;html=1;" parent="3QEIaoWRBVpVeuE5lznQ-49" vertex="1">
          <mxGeometry x="30" width="240" height="30" as="geometry">
            <mxRectangle width="240" height="30" as="alternateBounds" />
          </mxGeometry>
        </mxCell>
        <mxCell id="3QEIaoWRBVpVeuE5lznQ-58" value="" style="shape=tableRow;horizontal=0;startSize=0;swimlaneHead=0;swimlaneBody=0;fillColor=none;collapsible=0;dropTarget=0;points=[[0,0.5],[1,0.5]];portConstraint=eastwest;top=0;left=0;right=0;bottom=0;" parent="3QEIaoWRBVpVeuE5lznQ-48" vertex="1">
          <mxGeometry y="60" width="270" height="30" as="geometry" />
        </mxCell>
        <mxCell id="3QEIaoWRBVpVeuE5lznQ-59" value="FK" style="shape=partialRectangle;connectable=0;fillColor=none;top=0;left=0;bottom=0;right=0;editable=1;overflow=hidden;whiteSpace=wrap;html=1;" parent="3QEIaoWRBVpVeuE5lznQ-58" vertex="1">
          <mxGeometry width="30" height="30" as="geometry">
            <mxRectangle width="30" height="30" as="alternateBounds" />
          </mxGeometry>
        </mxCell>
        <mxCell id="3QEIaoWRBVpVeuE5lznQ-60" value="CustomerID int NOT NULL" style="shape=partialRectangle;connectable=0;fillColor=none;top=0;left=0;bottom=0;right=0;align=left;spacingLeft=6;overflow=hidden;whiteSpace=wrap;html=1;" parent="3QEIaoWRBVpVeuE5lznQ-58" vertex="1">
          <mxGeometry x="30" width="240" height="30" as="geometry">
            <mxRectangle width="240" height="30" as="alternateBounds" />
          </mxGeometry>
        </mxCell>
        <mxCell id="3QEIaoWRBVpVeuE5lznQ-343" value="" style="shape=tableRow;horizontal=0;startSize=0;swimlaneHead=0;swimlaneBody=0;fillColor=none;collapsible=0;dropTarget=0;points=[[0,0.5],[1,0.5]];portConstraint=eastwest;top=0;left=0;right=0;bottom=0;" parent="3QEIaoWRBVpVeuE5lznQ-48" vertex="1">
          <mxGeometry y="90" width="270" height="30" as="geometry" />
        </mxCell>
        <mxCell id="3QEIaoWRBVpVeuE5lznQ-344" value="" style="shape=partialRectangle;connectable=0;fillColor=none;top=0;left=0;bottom=0;right=0;editable=1;overflow=hidden;whiteSpace=wrap;html=1;" parent="3QEIaoWRBVpVeuE5lznQ-343" vertex="1">
          <mxGeometry width="30" height="30" as="geometry">
            <mxRectangle width="30" height="30" as="alternateBounds" />
          </mxGeometry>
        </mxCell>
        <mxCell id="3QEIaoWRBVpVeuE5lznQ-345" value="StreetName nvarchar(50) NOT NULL" style="shape=partialRectangle;connectable=0;fillColor=none;top=0;left=0;bottom=0;right=0;align=left;spacingLeft=6;overflow=hidden;whiteSpace=wrap;html=1;" parent="3QEIaoWRBVpVeuE5lznQ-343" vertex="1">
          <mxGeometry x="30" width="240" height="30" as="geometry">
            <mxRectangle width="240" height="30" as="alternateBounds" />
          </mxGeometry>
        </mxCell>
        <mxCell id="3QEIaoWRBVpVeuE5lznQ-61" value="" style="shape=tableRow;horizontal=0;startSize=0;swimlaneHead=0;swimlaneBody=0;fillColor=none;collapsible=0;dropTarget=0;points=[[0,0.5],[1,0.5]];portConstraint=eastwest;top=0;left=0;right=0;bottom=0;" parent="3QEIaoWRBVpVeuE5lznQ-48" vertex="1">
          <mxGeometry y="120" width="270" height="30" as="geometry" />
        </mxCell>
        <mxCell id="3QEIaoWRBVpVeuE5lznQ-62" value="" style="shape=partialRectangle;connectable=0;fillColor=none;top=0;left=0;bottom=0;right=0;editable=1;overflow=hidden;whiteSpace=wrap;html=1;" parent="3QEIaoWRBVpVeuE5lznQ-61" vertex="1">
          <mxGeometry width="30" height="30" as="geometry">
            <mxRectangle width="30" height="30" as="alternateBounds" />
          </mxGeometry>
        </mxCell>
        <mxCell id="3QEIaoWRBVpVeuE5lznQ-63" value="City nvarchar(50) NOT NULL" style="shape=partialRectangle;connectable=0;fillColor=none;top=0;left=0;bottom=0;right=0;align=left;spacingLeft=6;overflow=hidden;whiteSpace=wrap;html=1;" parent="3QEIaoWRBVpVeuE5lznQ-61" vertex="1">
          <mxGeometry x="30" width="240" height="30" as="geometry">
            <mxRectangle width="240" height="30" as="alternateBounds" />
          </mxGeometry>
        </mxCell>
        <mxCell id="3QEIaoWRBVpVeuE5lznQ-64" value="" style="shape=tableRow;horizontal=0;startSize=0;swimlaneHead=0;swimlaneBody=0;fillColor=none;collapsible=0;dropTarget=0;points=[[0,0.5],[1,0.5]];portConstraint=eastwest;top=0;left=0;right=0;bottom=0;" parent="3QEIaoWRBVpVeuE5lznQ-48" vertex="1">
          <mxGeometry y="150" width="270" height="30" as="geometry" />
        </mxCell>
        <mxCell id="3QEIaoWRBVpVeuE5lznQ-65" value="" style="shape=partialRectangle;connectable=0;fillColor=none;top=0;left=0;bottom=0;right=0;editable=1;overflow=hidden;whiteSpace=wrap;html=1;" parent="3QEIaoWRBVpVeuE5lznQ-64" vertex="1">
          <mxGeometry width="30" height="30" as="geometry">
            <mxRectangle width="30" height="30" as="alternateBounds" />
          </mxGeometry>
        </mxCell>
        <mxCell id="3QEIaoWRBVpVeuE5lznQ-66" value="Zipcode nvarchar(6) NOT NULL" style="shape=partialRectangle;connectable=0;fillColor=none;top=0;left=0;bottom=0;right=0;align=left;spacingLeft=6;overflow=hidden;whiteSpace=wrap;html=1;" parent="3QEIaoWRBVpVeuE5lznQ-64" vertex="1">
          <mxGeometry x="30" width="240" height="30" as="geometry">
            <mxRectangle width="240" height="30" as="alternateBounds" />
          </mxGeometry>
        </mxCell>
        <mxCell id="3QEIaoWRBVpVeuE5lznQ-70" value="AccountType" style="shape=table;startSize=30;container=1;collapsible=1;childLayout=tableLayout;fixedRows=1;rowLines=0;fontStyle=1;align=center;resizeLast=1;html=1;fillColor=#ffcd28;gradientColor=#ffa500;strokeColor=#d79b00;" parent="1" vertex="1">
          <mxGeometry x="-110" y="600" width="275" height="90" as="geometry" />
        </mxCell>
        <mxCell id="3QEIaoWRBVpVeuE5lznQ-71" value="" style="shape=tableRow;horizontal=0;startSize=0;swimlaneHead=0;swimlaneBody=0;fillColor=none;collapsible=0;dropTarget=0;points=[[0,0.5],[1,0.5]];portConstraint=eastwest;top=0;left=0;right=0;bottom=1;" parent="3QEIaoWRBVpVeuE5lznQ-70" vertex="1">
          <mxGeometry y="30" width="275" height="30" as="geometry" />
        </mxCell>
        <mxCell id="3QEIaoWRBVpVeuE5lznQ-72" value="PK" style="shape=partialRectangle;connectable=0;fillColor=none;top=0;left=0;bottom=0;right=0;fontStyle=1;overflow=hidden;whiteSpace=wrap;html=1;" parent="3QEIaoWRBVpVeuE5lznQ-71" vertex="1">
          <mxGeometry width="30" height="30" as="geometry">
            <mxRectangle width="30" height="30" as="alternateBounds" />
          </mxGeometry>
        </mxCell>
        <mxCell id="3QEIaoWRBVpVeuE5lznQ-73" value="AccountTypeID int NOT NULL" style="shape=partialRectangle;connectable=0;fillColor=none;top=0;left=0;bottom=0;right=0;align=left;spacingLeft=6;fontStyle=5;overflow=hidden;whiteSpace=wrap;html=1;" parent="3QEIaoWRBVpVeuE5lznQ-71" vertex="1">
          <mxGeometry x="30" width="245" height="30" as="geometry">
            <mxRectangle width="245" height="30" as="alternateBounds" />
          </mxGeometry>
        </mxCell>
        <mxCell id="3QEIaoWRBVpVeuE5lznQ-216" value="" style="shape=tableRow;horizontal=0;startSize=0;swimlaneHead=0;swimlaneBody=0;fillColor=none;collapsible=0;dropTarget=0;points=[[0,0.5],[1,0.5]];portConstraint=eastwest;top=0;left=0;right=0;bottom=0;" parent="3QEIaoWRBVpVeuE5lznQ-70" vertex="1">
          <mxGeometry y="60" width="275" height="30" as="geometry" />
        </mxCell>
        <mxCell id="3QEIaoWRBVpVeuE5lznQ-217" value="" style="shape=partialRectangle;connectable=0;fillColor=none;top=0;left=0;bottom=0;right=0;editable=1;overflow=hidden;whiteSpace=wrap;html=1;" parent="3QEIaoWRBVpVeuE5lznQ-216" vertex="1">
          <mxGeometry width="30" height="30" as="geometry">
            <mxRectangle width="30" height="30" as="alternateBounds" />
          </mxGeometry>
        </mxCell>
        <mxCell id="3QEIaoWRBVpVeuE5lznQ-218" value="AccountTypeName nvarchar(30) NOT NULL" style="shape=partialRectangle;connectable=0;fillColor=none;top=0;left=0;bottom=0;right=0;align=left;spacingLeft=6;overflow=hidden;whiteSpace=wrap;html=1;" parent="3QEIaoWRBVpVeuE5lznQ-216" vertex="1">
          <mxGeometry x="30" width="245" height="30" as="geometry">
            <mxRectangle width="245" height="30" as="alternateBounds" />
          </mxGeometry>
        </mxCell>
        <mxCell id="3QEIaoWRBVpVeuE5lznQ-86" value="TransactionType" style="shape=table;startSize=30;container=1;collapsible=1;childLayout=tableLayout;fixedRows=1;rowLines=0;fontStyle=1;align=center;resizeLast=1;html=1;fillColor=#ffcd28;gradientColor=#ffa500;strokeColor=#d79b00;" parent="1" vertex="1">
          <mxGeometry x="570" y="420" width="255" height="90" as="geometry" />
        </mxCell>
        <mxCell id="3QEIaoWRBVpVeuE5lznQ-87" value="" style="shape=tableRow;horizontal=0;startSize=0;swimlaneHead=0;swimlaneBody=0;fillColor=none;collapsible=0;dropTarget=0;points=[[0,0.5],[1,0.5]];portConstraint=eastwest;top=0;left=0;right=0;bottom=1;" parent="3QEIaoWRBVpVeuE5lznQ-86" vertex="1">
          <mxGeometry y="30" width="255" height="30" as="geometry" />
        </mxCell>
        <mxCell id="3QEIaoWRBVpVeuE5lznQ-88" value="PK" style="shape=partialRectangle;connectable=0;fillColor=none;top=0;left=0;bottom=0;right=0;fontStyle=1;overflow=hidden;whiteSpace=wrap;html=1;" parent="3QEIaoWRBVpVeuE5lznQ-87" vertex="1">
          <mxGeometry width="30" height="30" as="geometry">
            <mxRectangle width="30" height="30" as="alternateBounds" />
          </mxGeometry>
        </mxCell>
        <mxCell id="3QEIaoWRBVpVeuE5lznQ-89" value="TransactionTypeID int NOT NULL" style="shape=partialRectangle;connectable=0;fillColor=none;top=0;left=0;bottom=0;right=0;align=left;spacingLeft=6;fontStyle=5;overflow=hidden;whiteSpace=wrap;html=1;" parent="3QEIaoWRBVpVeuE5lznQ-87" vertex="1">
          <mxGeometry x="30" width="225" height="30" as="geometry">
            <mxRectangle width="225" height="30" as="alternateBounds" />
          </mxGeometry>
        </mxCell>
        <mxCell id="3QEIaoWRBVpVeuE5lznQ-90" value="" style="shape=tableRow;horizontal=0;startSize=0;swimlaneHead=0;swimlaneBody=0;fillColor=none;collapsible=0;dropTarget=0;points=[[0,0.5],[1,0.5]];portConstraint=eastwest;top=0;left=0;right=0;bottom=0;" parent="3QEIaoWRBVpVeuE5lznQ-86" vertex="1">
          <mxGeometry y="60" width="255" height="30" as="geometry" />
        </mxCell>
        <mxCell id="3QEIaoWRBVpVeuE5lznQ-91" value="" style="shape=partialRectangle;connectable=0;fillColor=none;top=0;left=0;bottom=0;right=0;editable=1;overflow=hidden;whiteSpace=wrap;html=1;" parent="3QEIaoWRBVpVeuE5lznQ-90" vertex="1">
          <mxGeometry width="30" height="30" as="geometry">
            <mxRectangle width="30" height="30" as="alternateBounds" />
          </mxGeometry>
        </mxCell>
        <mxCell id="3QEIaoWRBVpVeuE5lznQ-92" value="TransactionTypeName nvarchar(30)" style="shape=partialRectangle;connectable=0;fillColor=none;top=0;left=0;bottom=0;right=0;align=left;spacingLeft=6;overflow=hidden;whiteSpace=wrap;html=1;" parent="3QEIaoWRBVpVeuE5lznQ-90" vertex="1">
          <mxGeometry x="30" width="225" height="30" as="geometry">
            <mxRectangle width="225" height="30" as="alternateBounds" />
          </mxGeometry>
        </mxCell>
        <mxCell id="3QEIaoWRBVpVeuE5lznQ-130" value="CardSecurity" style="shape=table;startSize=30;container=1;collapsible=1;childLayout=tableLayout;fixedRows=1;rowLines=0;fontStyle=1;align=center;resizeLast=1;html=1;fillColor=#cdeb8b;strokeColor=#36393d;" parent="1" vertex="1">
          <mxGeometry x="535" y="50" width="255" height="120" as="geometry" />
        </mxCell>
        <mxCell id="3QEIaoWRBVpVeuE5lznQ-131" value="" style="shape=tableRow;horizontal=0;startSize=0;swimlaneHead=0;swimlaneBody=0;fillColor=none;collapsible=0;dropTarget=0;points=[[0,0.5],[1,0.5]];portConstraint=eastwest;top=0;left=0;right=0;bottom=1;" parent="3QEIaoWRBVpVeuE5lznQ-130" vertex="1">
          <mxGeometry y="30" width="255" height="30" as="geometry" />
        </mxCell>
        <mxCell id="3QEIaoWRBVpVeuE5lznQ-132" value="PK" style="shape=partialRectangle;connectable=0;fillColor=none;top=0;left=0;bottom=0;right=0;fontStyle=1;overflow=hidden;whiteSpace=wrap;html=1;" parent="3QEIaoWRBVpVeuE5lznQ-131" vertex="1">
          <mxGeometry width="30" height="30" as="geometry">
            <mxRectangle width="30" height="30" as="alternateBounds" />
          </mxGeometry>
        </mxCell>
        <mxCell id="3QEIaoWRBVpVeuE5lznQ-133" value="CardSecurityID int NOT NULL" style="shape=partialRectangle;connectable=0;fillColor=none;top=0;left=0;bottom=0;right=0;align=left;spacingLeft=6;fontStyle=5;overflow=hidden;whiteSpace=wrap;html=1;" parent="3QEIaoWRBVpVeuE5lznQ-131" vertex="1">
          <mxGeometry x="30" width="225" height="30" as="geometry">
            <mxRectangle width="225" height="30" as="alternateBounds" />
          </mxGeometry>
        </mxCell>
        <mxCell id="3QEIaoWRBVpVeuE5lznQ-282" value="" style="shape=tableRow;horizontal=0;startSize=0;swimlaneHead=0;swimlaneBody=0;fillColor=none;collapsible=0;dropTarget=0;points=[[0,0.5],[1,0.5]];portConstraint=eastwest;top=0;left=0;right=0;bottom=0;" parent="3QEIaoWRBVpVeuE5lznQ-130" vertex="1">
          <mxGeometry y="60" width="255" height="30" as="geometry" />
        </mxCell>
        <mxCell id="3QEIaoWRBVpVeuE5lznQ-283" value="" style="shape=partialRectangle;connectable=0;fillColor=none;top=0;left=0;bottom=0;right=0;editable=1;overflow=hidden;whiteSpace=wrap;html=1;" parent="3QEIaoWRBVpVeuE5lznQ-282" vertex="1">
          <mxGeometry width="30" height="30" as="geometry">
            <mxRectangle width="30" height="30" as="alternateBounds" />
          </mxGeometry>
        </mxCell>
        <mxCell id="3QEIaoWRBVpVeuE5lznQ-284" value="CardNumber nvarchar(20) NOT NULL" style="shape=partialRectangle;connectable=0;fillColor=none;top=0;left=0;bottom=0;right=0;align=left;spacingLeft=6;overflow=hidden;whiteSpace=wrap;html=1;" parent="3QEIaoWRBVpVeuE5lznQ-282" vertex="1">
          <mxGeometry x="30" width="225" height="30" as="geometry">
            <mxRectangle width="225" height="30" as="alternateBounds" />
          </mxGeometry>
        </mxCell>
        <mxCell id="3QEIaoWRBVpVeuE5lznQ-315" value="" style="shape=tableRow;horizontal=0;startSize=0;swimlaneHead=0;swimlaneBody=0;fillColor=none;collapsible=0;dropTarget=0;points=[[0,0.5],[1,0.5]];portConstraint=eastwest;top=0;left=0;right=0;bottom=0;" parent="3QEIaoWRBVpVeuE5lznQ-130" vertex="1">
          <mxGeometry y="90" width="255" height="30" as="geometry" />
        </mxCell>
        <mxCell id="3QEIaoWRBVpVeuE5lznQ-316" value="" style="shape=partialRectangle;connectable=0;fillColor=none;top=0;left=0;bottom=0;right=0;editable=1;overflow=hidden;whiteSpace=wrap;html=1;" parent="3QEIaoWRBVpVeuE5lznQ-315" vertex="1">
          <mxGeometry width="30" height="30" as="geometry">
            <mxRectangle width="30" height="30" as="alternateBounds" />
          </mxGeometry>
        </mxCell>
        <mxCell id="3QEIaoWRBVpVeuE5lznQ-317" value="CVC int NOT NULL" style="shape=partialRectangle;connectable=0;fillColor=none;top=0;left=0;bottom=0;right=0;align=left;spacingLeft=6;overflow=hidden;whiteSpace=wrap;html=1;" parent="3QEIaoWRBVpVeuE5lznQ-315" vertex="1">
          <mxGeometry x="30" width="225" height="30" as="geometry">
            <mxRectangle width="225" height="30" as="alternateBounds" />
          </mxGeometry>
        </mxCell>
        <mxCell id="3QEIaoWRBVpVeuE5lznQ-164" value="LoanType" style="shape=table;startSize=30;container=1;collapsible=1;childLayout=tableLayout;fixedRows=1;rowLines=0;fontStyle=1;align=center;resizeLast=1;html=1;fillColor=#ffcd28;gradientColor=#ffa500;strokeColor=#d79b00;" parent="1" vertex="1">
          <mxGeometry x="-580" y="750" width="270" height="90" as="geometry" />
        </mxCell>
        <mxCell id="3QEIaoWRBVpVeuE5lznQ-165" value="" style="shape=tableRow;horizontal=0;startSize=0;swimlaneHead=0;swimlaneBody=0;fillColor=none;collapsible=0;dropTarget=0;points=[[0,0.5],[1,0.5]];portConstraint=eastwest;top=0;left=0;right=0;bottom=1;" parent="3QEIaoWRBVpVeuE5lznQ-164" vertex="1">
          <mxGeometry y="30" width="270" height="30" as="geometry" />
        </mxCell>
        <mxCell id="3QEIaoWRBVpVeuE5lznQ-166" value="PK" style="shape=partialRectangle;connectable=0;fillColor=none;top=0;left=0;bottom=0;right=0;fontStyle=1;overflow=hidden;whiteSpace=wrap;html=1;" parent="3QEIaoWRBVpVeuE5lznQ-165" vertex="1">
          <mxGeometry width="30" height="30" as="geometry">
            <mxRectangle width="30" height="30" as="alternateBounds" />
          </mxGeometry>
        </mxCell>
        <mxCell id="3QEIaoWRBVpVeuE5lznQ-167" value="LoanTypeID int NOT NULL" style="shape=partialRectangle;connectable=0;fillColor=none;top=0;left=0;bottom=0;right=0;align=left;spacingLeft=6;fontStyle=5;overflow=hidden;whiteSpace=wrap;html=1;" parent="3QEIaoWRBVpVeuE5lznQ-165" vertex="1">
          <mxGeometry x="30" width="240" height="30" as="geometry">
            <mxRectangle width="240" height="30" as="alternateBounds" />
          </mxGeometry>
        </mxCell>
        <mxCell id="3QEIaoWRBVpVeuE5lznQ-168" value="" style="shape=tableRow;horizontal=0;startSize=0;swimlaneHead=0;swimlaneBody=0;fillColor=none;collapsible=0;dropTarget=0;points=[[0,0.5],[1,0.5]];portConstraint=eastwest;top=0;left=0;right=0;bottom=0;" parent="3QEIaoWRBVpVeuE5lznQ-164" vertex="1">
          <mxGeometry y="60" width="270" height="30" as="geometry" />
        </mxCell>
        <mxCell id="3QEIaoWRBVpVeuE5lznQ-169" value="" style="shape=partialRectangle;connectable=0;fillColor=none;top=0;left=0;bottom=0;right=0;editable=1;overflow=hidden;whiteSpace=wrap;html=1;" parent="3QEIaoWRBVpVeuE5lznQ-168" vertex="1">
          <mxGeometry width="30" height="30" as="geometry">
            <mxRectangle width="30" height="30" as="alternateBounds" />
          </mxGeometry>
        </mxCell>
        <mxCell id="3QEIaoWRBVpVeuE5lznQ-170" value="LoanTypeName nvarchar(50) NOT NULL" style="shape=partialRectangle;connectable=0;fillColor=none;top=0;left=0;bottom=0;right=0;align=left;spacingLeft=6;overflow=hidden;whiteSpace=wrap;html=1;" parent="3QEIaoWRBVpVeuE5lznQ-168" vertex="1">
          <mxGeometry x="30" width="240" height="30" as="geometry">
            <mxRectangle width="240" height="30" as="alternateBounds" />
          </mxGeometry>
        </mxCell>
        <mxCell id="3QEIaoWRBVpVeuE5lznQ-180" value="" style="edgeStyle=orthogonalEdgeStyle;fontSize=12;html=1;endArrow=ERmandOne;startArrow=ERmandOne;rounded=0;exitX=1;exitY=0.5;exitDx=0;exitDy=0;entryX=0;entryY=0.5;entryDx=0;entryDy=0;" parent="1" source="3QEIaoWRBVpVeuE5lznQ-18" target="3QEIaoWRBVpVeuE5lznQ-131" edge="1">
          <mxGeometry width="100" height="100" relative="1" as="geometry">
            <mxPoint x="220" y="400" as="sourcePoint" />
            <mxPoint x="320" y="300" as="targetPoint" />
          </mxGeometry>
        </mxCell>
        <mxCell id="3QEIaoWRBVpVeuE5lznQ-189" value="&lt;font style=&quot;font-size: 14px;&quot;&gt;&lt;b&gt;Customer performs transactions through Account&lt;/b&gt;&lt;/font&gt;" style="text;html=1;strokeColor=none;fillColor=none;align=center;verticalAlign=middle;whiteSpace=wrap;rounded=0;" parent="1" vertex="1">
          <mxGeometry x="220" y="400" width="162.5" height="30" as="geometry" />
        </mxCell>
        <mxCell id="3QEIaoWRBVpVeuE5lznQ-190" value="&lt;b&gt;&lt;font style=&quot;font-size: 14px;&quot;&gt;A customer has contact information&lt;/font&gt;&lt;/b&gt;" style="text;html=1;strokeColor=none;fillColor=none;align=center;verticalAlign=middle;whiteSpace=wrap;rounded=0;" parent="1" vertex="1">
          <mxGeometry x="-750" y="60" width="140" height="30" as="geometry" />
        </mxCell>
        <mxCell id="3QEIaoWRBVpVeuE5lznQ-199" value="&lt;b&gt;&lt;font style=&quot;font-size: 14px;&quot;&gt;IS A&amp;nbsp;&lt;/font&gt;&lt;/b&gt;" style="text;html=1;strokeColor=none;fillColor=none;align=center;verticalAlign=middle;whiteSpace=wrap;rounded=0;" parent="1" vertex="1">
          <mxGeometry x="450" y="410" width="60" height="30" as="geometry" />
        </mxCell>
        <mxCell id="3QEIaoWRBVpVeuE5lznQ-201" value="&lt;b&gt;&lt;font style=&quot;font-size: 14px;&quot;&gt;HAS A&lt;/font&gt;&lt;/b&gt;" style="text;html=1;strokeColor=none;fillColor=none;align=center;verticalAlign=middle;whiteSpace=wrap;rounded=0;" parent="1" vertex="1">
          <mxGeometry x="430" y="40" width="60" height="30" as="geometry" />
        </mxCell>
        <mxCell id="3QEIaoWRBVpVeuE5lznQ-202" value="" style="endArrow=classic;html=1;rounded=0;" parent="1" edge="1">
          <mxGeometry width="50" height="50" relative="1" as="geometry">
            <mxPoint x="-160" y="530" as="sourcePoint" />
            <mxPoint x="-150" y="660" as="targetPoint" />
            <Array as="points">
              <mxPoint x="-190" y="530" />
              <mxPoint x="-190" y="660" />
            </Array>
          </mxGeometry>
        </mxCell>
        <mxCell id="3QEIaoWRBVpVeuE5lznQ-203" value="&lt;b&gt;&lt;font style=&quot;font-size: 14px;&quot;&gt;IS AN&lt;/font&gt;&lt;/b&gt;" style="text;html=1;strokeColor=none;fillColor=none;align=center;verticalAlign=middle;whiteSpace=wrap;rounded=0;" parent="1" vertex="1">
          <mxGeometry x="-195" y="555" width="60" height="30" as="geometry" />
        </mxCell>
        <mxCell id="3QEIaoWRBVpVeuE5lznQ-206" value="" style="endArrow=classic;html=1;rounded=0;" parent="1" edge="1">
          <mxGeometry width="50" height="50" relative="1" as="geometry">
            <mxPoint x="260" y="460" as="sourcePoint" />
            <mxPoint x="160" y="380" as="targetPoint" />
            <Array as="points">
              <mxPoint x="260" y="440" />
              <mxPoint x="210" y="440" />
              <mxPoint x="210" y="380" />
            </Array>
          </mxGeometry>
        </mxCell>
        <mxCell id="3QEIaoWRBVpVeuE5lznQ-208" value="" style="endArrow=classic;html=1;rounded=0;" parent="1" edge="1">
          <mxGeometry width="50" height="50" relative="1" as="geometry">
            <mxPoint x="-540" y="45" as="sourcePoint" />
            <mxPoint x="-590" y="105" as="targetPoint" />
            <Array as="points">
              <mxPoint x="-590" y="45" />
            </Array>
          </mxGeometry>
        </mxCell>
        <mxCell id="3QEIaoWRBVpVeuE5lznQ-249" value="Dispositions" style="shape=table;startSize=30;container=1;collapsible=1;childLayout=tableLayout;fixedRows=1;rowLines=0;fontStyle=1;align=center;resizeLast=1;html=1;fillColor=#eeeeee;strokeColor=#36393d;" parent="1" vertex="1">
          <mxGeometry x="-110" y="105" width="230" height="150" as="geometry">
            <mxRectangle x="-110" y="105" width="110" height="30" as="alternateBounds" />
          </mxGeometry>
        </mxCell>
        <mxCell id="3QEIaoWRBVpVeuE5lznQ-250" value="" style="shape=tableRow;horizontal=0;startSize=0;swimlaneHead=0;swimlaneBody=0;fillColor=none;collapsible=0;dropTarget=0;points=[[0,0.5],[1,0.5]];portConstraint=eastwest;top=0;left=0;right=0;bottom=1;" parent="3QEIaoWRBVpVeuE5lznQ-249" vertex="1">
          <mxGeometry y="30" width="230" height="30" as="geometry" />
        </mxCell>
        <mxCell id="3QEIaoWRBVpVeuE5lznQ-251" value="PK" style="shape=partialRectangle;connectable=0;fillColor=none;top=0;left=0;bottom=0;right=0;fontStyle=1;overflow=hidden;whiteSpace=wrap;html=1;" parent="3QEIaoWRBVpVeuE5lznQ-250" vertex="1">
          <mxGeometry width="30" height="30" as="geometry">
            <mxRectangle width="30" height="30" as="alternateBounds" />
          </mxGeometry>
        </mxCell>
        <mxCell id="3QEIaoWRBVpVeuE5lznQ-252" value="DispositionsID int NOT NULL" style="shape=partialRectangle;connectable=0;fillColor=none;top=0;left=0;bottom=0;right=0;align=left;spacingLeft=6;fontStyle=5;overflow=hidden;whiteSpace=wrap;html=1;" parent="3QEIaoWRBVpVeuE5lznQ-250" vertex="1">
          <mxGeometry x="30" width="200" height="30" as="geometry">
            <mxRectangle width="200" height="30" as="alternateBounds" />
          </mxGeometry>
        </mxCell>
        <mxCell id="3QEIaoWRBVpVeuE5lznQ-253" value="" style="shape=tableRow;horizontal=0;startSize=0;swimlaneHead=0;swimlaneBody=0;fillColor=none;collapsible=0;dropTarget=0;points=[[0,0.5],[1,0.5]];portConstraint=eastwest;top=0;left=0;right=0;bottom=0;" parent="3QEIaoWRBVpVeuE5lznQ-249" vertex="1">
          <mxGeometry y="60" width="230" height="30" as="geometry" />
        </mxCell>
        <mxCell id="3QEIaoWRBVpVeuE5lznQ-254" value="FK" style="shape=partialRectangle;connectable=0;fillColor=none;top=0;left=0;bottom=0;right=0;editable=1;overflow=hidden;whiteSpace=wrap;html=1;" parent="3QEIaoWRBVpVeuE5lznQ-253" vertex="1">
          <mxGeometry width="30" height="30" as="geometry">
            <mxRectangle width="30" height="30" as="alternateBounds" />
          </mxGeometry>
        </mxCell>
        <mxCell id="3QEIaoWRBVpVeuE5lznQ-255" value="CustomerID int NOT NULL" style="shape=partialRectangle;connectable=0;fillColor=none;top=0;left=0;bottom=0;right=0;align=left;spacingLeft=6;overflow=hidden;whiteSpace=wrap;html=1;" parent="3QEIaoWRBVpVeuE5lznQ-253" vertex="1">
          <mxGeometry x="30" width="200" height="30" as="geometry">
            <mxRectangle width="200" height="30" as="alternateBounds" />
          </mxGeometry>
        </mxCell>
        <mxCell id="3QEIaoWRBVpVeuE5lznQ-256" value="" style="shape=tableRow;horizontal=0;startSize=0;swimlaneHead=0;swimlaneBody=0;fillColor=none;collapsible=0;dropTarget=0;points=[[0,0.5],[1,0.5]];portConstraint=eastwest;top=0;left=0;right=0;bottom=0;" parent="3QEIaoWRBVpVeuE5lznQ-249" vertex="1">
          <mxGeometry y="90" width="230" height="30" as="geometry" />
        </mxCell>
        <mxCell id="3QEIaoWRBVpVeuE5lznQ-257" value="FK" style="shape=partialRectangle;connectable=0;fillColor=none;top=0;left=0;bottom=0;right=0;editable=1;overflow=hidden;whiteSpace=wrap;html=1;" parent="3QEIaoWRBVpVeuE5lznQ-256" vertex="1">
          <mxGeometry width="30" height="30" as="geometry">
            <mxRectangle width="30" height="30" as="alternateBounds" />
          </mxGeometry>
        </mxCell>
        <mxCell id="3QEIaoWRBVpVeuE5lznQ-258" value="AccountID int NOT NULL" style="shape=partialRectangle;connectable=0;fillColor=none;top=0;left=0;bottom=0;right=0;align=left;spacingLeft=6;overflow=hidden;whiteSpace=wrap;html=1;" parent="3QEIaoWRBVpVeuE5lznQ-256" vertex="1">
          <mxGeometry x="30" width="200" height="30" as="geometry">
            <mxRectangle width="200" height="30" as="alternateBounds" />
          </mxGeometry>
        </mxCell>
        <mxCell id="3QEIaoWRBVpVeuE5lznQ-323" value="" style="shape=tableRow;horizontal=0;startSize=0;swimlaneHead=0;swimlaneBody=0;fillColor=none;collapsible=0;dropTarget=0;points=[[0,0.5],[1,0.5]];portConstraint=eastwest;top=0;left=0;right=0;bottom=0;" parent="3QEIaoWRBVpVeuE5lznQ-249" vertex="1">
          <mxGeometry y="120" width="230" height="30" as="geometry" />
        </mxCell>
        <mxCell id="3QEIaoWRBVpVeuE5lznQ-324" value="FK" style="shape=partialRectangle;connectable=0;fillColor=none;top=0;left=0;bottom=0;right=0;editable=1;overflow=hidden;whiteSpace=wrap;html=1;" parent="3QEIaoWRBVpVeuE5lznQ-323" vertex="1">
          <mxGeometry width="30" height="30" as="geometry">
            <mxRectangle width="30" height="30" as="alternateBounds" />
          </mxGeometry>
        </mxCell>
        <mxCell id="3QEIaoWRBVpVeuE5lznQ-325" value="CardID int NOT NULL" style="shape=partialRectangle;connectable=0;fillColor=none;top=0;left=0;bottom=0;right=0;align=left;spacingLeft=6;overflow=hidden;whiteSpace=wrap;html=1;" parent="3QEIaoWRBVpVeuE5lznQ-323" vertex="1">
          <mxGeometry x="30" width="200" height="30" as="geometry">
            <mxRectangle width="200" height="30" as="alternateBounds" />
          </mxGeometry>
        </mxCell>
        <mxCell id="3QEIaoWRBVpVeuE5lznQ-263" value="" style="edgeStyle=elbowEdgeStyle;fontSize=12;html=1;endArrow=ERoneToMany;rounded=0;entryX=0;entryY=0.5;entryDx=0;entryDy=0;exitX=0;exitY=0.5;exitDx=0;exitDy=0;" parent="1" source="3QEIaoWRBVpVeuE5lznQ-256" target="C-vyLk0tnHw3VtMMgP7b-3" edge="1">
          <mxGeometry width="100" height="100" relative="1" as="geometry">
            <mxPoint x="-20" y="400" as="sourcePoint" />
            <mxPoint x="80" y="300" as="targetPoint" />
            <Array as="points">
              <mxPoint x="-150" y="320" />
            </Array>
          </mxGeometry>
        </mxCell>
        <mxCell id="3QEIaoWRBVpVeuE5lznQ-264" value="" style="edgeStyle=orthogonalEdgeStyle;fontSize=12;html=1;endArrow=ERoneToMany;rounded=0;entryX=1;entryY=0.5;entryDx=0;entryDy=0;exitX=0;exitY=0.5;exitDx=0;exitDy=0;" parent="1" source="3QEIaoWRBVpVeuE5lznQ-253" target="C-vyLk0tnHw3VtMMgP7b-24" edge="1">
          <mxGeometry width="100" height="100" relative="1" as="geometry">
            <mxPoint x="-150" y="300" as="sourcePoint" />
            <mxPoint x="-60" y="400" as="targetPoint" />
          </mxGeometry>
        </mxCell>
        <mxCell id="3QEIaoWRBVpVeuE5lznQ-269" value="" style="edgeStyle=elbowEdgeStyle;fontSize=12;html=1;endArrow=ERoneToMany;rounded=0;entryX=1;entryY=0.5;entryDx=0;entryDy=0;exitX=0;exitY=0.845;exitDx=0;exitDy=0;exitPerimeter=0;" parent="1" source="C-vyLk0tnHw3VtMMgP7b-3" target="3QEIaoWRBVpVeuE5lznQ-99" edge="1">
          <mxGeometry width="100" height="100" relative="1" as="geometry">
            <mxPoint x="-140" y="420" as="sourcePoint" />
            <mxPoint x="230" y="300" as="targetPoint" />
          </mxGeometry>
        </mxCell>
        <mxCell id="3QEIaoWRBVpVeuE5lznQ-270" value="" style="endArrow=classic;html=1;rounded=0;" parent="1" edge="1">
          <mxGeometry width="50" height="50" relative="1" as="geometry">
            <mxPoint x="-260" y="390" as="sourcePoint" />
            <mxPoint x="-170" y="370" as="targetPoint" />
            <Array as="points">
              <mxPoint x="-260" y="370" />
            </Array>
          </mxGeometry>
        </mxCell>
        <mxCell id="3QEIaoWRBVpVeuE5lznQ-271" value="&lt;span style=&quot;font-size: 14px;&quot;&gt;&lt;b&gt;Loan is deposited into an account.&lt;/b&gt;&lt;/span&gt;" style="text;html=1;strokeColor=none;fillColor=none;align=center;verticalAlign=middle;whiteSpace=wrap;rounded=0;" parent="1" vertex="1">
          <mxGeometry x="-310" y="330" width="130" height="30" as="geometry" />
        </mxCell>
        <mxCell id="3QEIaoWRBVpVeuE5lznQ-273" value="" style="endArrow=classic;html=1;rounded=0;" parent="1" edge="1">
          <mxGeometry width="50" height="50" relative="1" as="geometry">
            <mxPoint x="-630" y="630" as="sourcePoint" />
            <mxPoint x="-630" y="690" as="targetPoint" />
            <Array as="points" />
          </mxGeometry>
        </mxCell>
        <mxCell id="3QEIaoWRBVpVeuE5lznQ-278" value="&lt;b&gt;&lt;font style=&quot;font-size: 14px;&quot;&gt;IS A&lt;/font&gt;&lt;/b&gt;" style="text;html=1;strokeColor=none;fillColor=none;align=center;verticalAlign=middle;whiteSpace=wrap;rounded=0;" parent="1" vertex="1">
          <mxGeometry x="-700" y="650" width="60" height="30" as="geometry" />
        </mxCell>
        <mxCell id="3QEIaoWRBVpVeuE5lznQ-313" value="" style="endArrow=classic;html=1;rounded=0;" parent="1" edge="1">
          <mxGeometry width="50" height="50" relative="1" as="geometry">
            <mxPoint x="435" y="472.5" as="sourcePoint" />
            <mxPoint x="550" y="440.5" as="targetPoint" />
            <Array as="points">
              <mxPoint x="435" y="462.5" />
              <mxPoint x="435" y="440" />
            </Array>
          </mxGeometry>
        </mxCell>
        <mxCell id="3QEIaoWRBVpVeuE5lznQ-314" value="" style="edgeStyle=orthogonalEdgeStyle;fontSize=12;html=1;endArrow=ERoneToMany;rounded=0;entryX=0;entryY=0.5;entryDx=0;entryDy=0;exitX=1;exitY=0.5;exitDx=0;exitDy=0;" parent="1" source="3QEIaoWRBVpVeuE5lznQ-323" target="3QEIaoWRBVpVeuE5lznQ-15" edge="1">
          <mxGeometry width="100" height="100" relative="1" as="geometry">
            <mxPoint x="-30" y="430" as="sourcePoint" />
            <mxPoint x="70" y="330" as="targetPoint" />
          </mxGeometry>
        </mxCell>
        <mxCell id="3QEIaoWRBVpVeuE5lznQ-322" value="" style="edgeStyle=orthogonalEdgeStyle;fontSize=12;html=1;endArrow=ERoneToMany;rounded=0;entryX=0;entryY=0.5;entryDx=0;entryDy=0;exitX=1;exitY=0.5;exitDx=0;exitDy=0;" parent="1" source="C-vyLk0tnHw3VtMMgP7b-3" target="3QEIaoWRBVpVeuE5lznQ-318" edge="1">
          <mxGeometry width="100" height="100" relative="1" as="geometry">
            <mxPoint x="-30" y="470" as="sourcePoint" />
            <mxPoint x="70" y="370" as="targetPoint" />
          </mxGeometry>
        </mxCell>
        <mxCell id="3QEIaoWRBVpVeuE5lznQ-336" value="" style="edgeStyle=orthogonalEdgeStyle;fontSize=12;html=1;endArrow=ERoneToMany;rounded=0;entryX=1;entryY=0.5;entryDx=0;entryDy=0;exitX=0;exitY=0.5;exitDx=0;exitDy=0;" parent="1" source="3QEIaoWRBVpVeuE5lznQ-87" target="3QEIaoWRBVpVeuE5lznQ-5" edge="1">
          <mxGeometry width="100" height="100" relative="1" as="geometry">
            <mxPoint x="475" y="640" as="sourcePoint" />
            <mxPoint x="575" y="540" as="targetPoint" />
          </mxGeometry>
        </mxCell>
        <mxCell id="3QEIaoWRBVpVeuE5lznQ-337" value="" style="edgeStyle=orthogonalEdgeStyle;fontSize=12;html=1;endArrow=ERoneToMany;rounded=0;entryX=1;entryY=0.5;entryDx=0;entryDy=0;exitX=0.002;exitY=0.243;exitDx=0;exitDy=0;exitPerimeter=0;" parent="1" source="C-vyLk0tnHw3VtMMgP7b-24" target="3QEIaoWRBVpVeuE5lznQ-58" edge="1">
          <mxGeometry width="100" height="100" relative="1" as="geometry">
            <mxPoint x="-710" y="440" as="sourcePoint" />
            <mxPoint x="-610" y="340" as="targetPoint" />
          </mxGeometry>
        </mxCell>
        <mxCell id="3QEIaoWRBVpVeuE5lznQ-338" value="" style="edgeStyle=elbowEdgeStyle;fontSize=12;html=1;endArrow=ERoneToMany;rounded=0;entryX=0;entryY=0.5;entryDx=0;entryDy=0;exitX=0;exitY=0.5;exitDx=0;exitDy=0;" parent="1" source="3QEIaoWRBVpVeuE5lznQ-165" target="3QEIaoWRBVpVeuE5lznQ-266" edge="1">
          <mxGeometry width="100" height="100" relative="1" as="geometry">
            <mxPoint x="-640" y="590" as="sourcePoint" />
            <mxPoint x="-540" y="490" as="targetPoint" />
            <Array as="points">
              <mxPoint x="-600" y="660" />
            </Array>
          </mxGeometry>
        </mxCell>
        <mxCell id="3QEIaoWRBVpVeuE5lznQ-346" value="" style="edgeStyle=orthogonalEdgeStyle;fontSize=12;html=1;endArrow=ERoneToMany;rounded=0;exitX=0;exitY=0.5;exitDx=0;exitDy=0;entryX=0;entryY=0.5;entryDx=0;entryDy=0;" parent="1" source="3QEIaoWRBVpVeuE5lznQ-71" target="C-vyLk0tnHw3VtMMgP7b-6" edge="1">
          <mxGeometry width="100" height="100" relative="1" as="geometry">
            <mxPoint x="-90" y="450" as="sourcePoint" />
            <mxPoint x="10" y="350" as="targetPoint" />
          </mxGeometry>
        </mxCell>
        <mxCell id="3QEIaoWRBVpVeuE5lznQ-348" value="" style="endArrow=classic;html=1;rounded=0;" parent="1" edge="1">
          <mxGeometry width="50" height="50" relative="1" as="geometry">
            <mxPoint x="410" y="105" as="sourcePoint" />
            <mxPoint x="525" y="73" as="targetPoint" />
            <Array as="points">
              <mxPoint x="410" y="95" />
              <mxPoint x="410" y="72.5" />
            </Array>
          </mxGeometry>
        </mxCell>
        <mxCell id="8nZnxmdu5XZFXlYCYkYo-4" value="Login" style="shape=table;startSize=20;container=1;collapsible=1;childLayout=tableLayout;fixedRows=1;rowLines=0;fontStyle=1;align=center;resizeLast=1;html=1;fillColor=#f8cecc;gradientColor=#ea6b66;strokeColor=#b85450;" parent="1" vertex="1">
          <mxGeometry x="-830" y="330" width="260" height="100" as="geometry" />
        </mxCell>
        <mxCell id="8nZnxmdu5XZFXlYCYkYo-5" value="" style="shape=tableRow;horizontal=0;startSize=0;swimlaneHead=0;swimlaneBody=0;fillColor=none;collapsible=0;dropTarget=0;points=[[0,0.5],[1,0.5]];portConstraint=eastwest;top=0;left=0;right=0;bottom=1;" parent="8nZnxmdu5XZFXlYCYkYo-4" vertex="1">
          <mxGeometry y="20" width="260" height="20" as="geometry" />
        </mxCell>
        <mxCell id="8nZnxmdu5XZFXlYCYkYo-6" value="PK" style="shape=partialRectangle;connectable=0;fillColor=none;top=0;left=0;bottom=0;right=0;fontStyle=1;overflow=hidden;whiteSpace=wrap;html=1;" parent="8nZnxmdu5XZFXlYCYkYo-5" vertex="1">
          <mxGeometry width="30" height="20" as="geometry">
            <mxRectangle width="30" height="20" as="alternateBounds" />
          </mxGeometry>
        </mxCell>
        <mxCell id="8nZnxmdu5XZFXlYCYkYo-7" value="LoginID int NOT NULL" style="shape=partialRectangle;connectable=0;fillColor=none;top=0;left=0;bottom=0;right=0;align=left;spacingLeft=6;fontStyle=5;overflow=hidden;whiteSpace=wrap;html=1;" parent="8nZnxmdu5XZFXlYCYkYo-5" vertex="1">
          <mxGeometry x="30" width="230" height="20" as="geometry">
            <mxRectangle width="230" height="20" as="alternateBounds" />
          </mxGeometry>
        </mxCell>
        <mxCell id="8nZnxmdu5XZFXlYCYkYo-8" value="" style="shape=tableRow;horizontal=0;startSize=0;swimlaneHead=0;swimlaneBody=0;fillColor=none;collapsible=0;dropTarget=0;points=[[0,0.5],[1,0.5]];portConstraint=eastwest;top=0;left=0;right=0;bottom=0;" parent="8nZnxmdu5XZFXlYCYkYo-4" vertex="1">
          <mxGeometry y="40" width="260" height="30" as="geometry" />
        </mxCell>
        <mxCell id="8nZnxmdu5XZFXlYCYkYo-9" value="FK" style="shape=partialRectangle;connectable=0;fillColor=none;top=0;left=0;bottom=0;right=0;editable=1;overflow=hidden;whiteSpace=wrap;html=1;" parent="8nZnxmdu5XZFXlYCYkYo-8" vertex="1">
          <mxGeometry width="30" height="30" as="geometry">
            <mxRectangle width="30" height="30" as="alternateBounds" />
          </mxGeometry>
        </mxCell>
        <mxCell id="8nZnxmdu5XZFXlYCYkYo-10" value="CustomerID int NOT NULL" style="shape=partialRectangle;connectable=0;fillColor=none;top=0;left=0;bottom=0;right=0;align=left;spacingLeft=6;overflow=hidden;whiteSpace=wrap;html=1;" parent="8nZnxmdu5XZFXlYCYkYo-8" vertex="1">
          <mxGeometry x="30" width="230" height="30" as="geometry">
            <mxRectangle width="230" height="30" as="alternateBounds" />
          </mxGeometry>
        </mxCell>
        <mxCell id="8nZnxmdu5XZFXlYCYkYo-11" value="" style="shape=tableRow;horizontal=0;startSize=0;swimlaneHead=0;swimlaneBody=0;fillColor=none;collapsible=0;dropTarget=0;points=[[0,0.5],[1,0.5]];portConstraint=eastwest;top=0;left=0;right=0;bottom=0;" parent="8nZnxmdu5XZFXlYCYkYo-4" vertex="1">
          <mxGeometry y="70" width="260" height="30" as="geometry" />
        </mxCell>
        <mxCell id="8nZnxmdu5XZFXlYCYkYo-12" value="" style="shape=partialRectangle;connectable=0;fillColor=none;top=0;left=0;bottom=0;right=0;editable=1;overflow=hidden;whiteSpace=wrap;html=1;" parent="8nZnxmdu5XZFXlYCYkYo-11" vertex="1">
          <mxGeometry width="30" height="30" as="geometry">
            <mxRectangle width="30" height="30" as="alternateBounds" />
          </mxGeometry>
        </mxCell>
        <mxCell id="8nZnxmdu5XZFXlYCYkYo-13" value="LoginPassword nvarchar(10) NOT NULL" style="shape=partialRectangle;connectable=0;fillColor=none;top=0;left=0;bottom=0;right=0;align=left;spacingLeft=6;overflow=hidden;whiteSpace=wrap;html=1;" parent="8nZnxmdu5XZFXlYCYkYo-11" vertex="1">
          <mxGeometry x="30" width="230" height="30" as="geometry">
            <mxRectangle width="230" height="30" as="alternateBounds" />
          </mxGeometry>
        </mxCell>
        <mxCell id="8nZnxmdu5XZFXlYCYkYo-14" value="" style="edgeStyle=orthogonalEdgeStyle;fontSize=12;html=1;endArrow=ERmandOne;startArrow=ERmandOne;rounded=0;exitX=1;exitY=0.5;exitDx=0;exitDy=0;" parent="1" source="8nZnxmdu5XZFXlYCYkYo-8" target="C-vyLk0tnHw3VtMMgP7b-24" edge="1">
          <mxGeometry width="100" height="100" relative="1" as="geometry">
            <mxPoint x="-770" y="583.9300000000001" as="sourcePoint" />
            <mxPoint x="-715" y="483.93" as="targetPoint" />
            <Array as="points">
              <mxPoint x="-510" y="385" />
              <mxPoint x="-510" y="58" />
            </Array>
          </mxGeometry>
        </mxCell>
      </root>
    </mxGraphModel>
  </diagram>
</mxfile>
